<svg version="1.1" viewBox="0 0 24 24" xmlSpace="preserve" xmlns="http://www.w3.org/2000/svg" fill="currentColor">
  <path
    d="m23.652 13.807-4.9522 4.9521c-3.09e-4 2.37e-4 -5.64e-4 4.79e-4 -8.73e-4 7.05e-4 -0.02814 0.02805-0.05747 0.0546-0.08807 0.07966-0.01689 0.01389-0.0348 0.02591-0.05232 0.03867-0.01347 0.0098-0.02631 0.02031-0.0402 0.02948-0.02298 0.0154-0.04684 0.02893-0.07062 0.04248-0.0094 0.0053-0.0186 0.01154-0.02822 0.01668-0.02266 0.01219-0.04596 0.02251-0.06927 0.03313-0.01198 0.0055-0.02362 0.01154-0.03583 0.01668-0.02009 0.0083-0.04067 0.01497-0.06104 0.02228-0.01646 0.0057-0.03249 0.01219-0.04921 0.0171-0.01625 0.0049-0.03297 0.0086-0.04953 0.01282-0.02117 0.0055-0.04232 0.01133-0.06397 0.01561-0.01261 0.0025-0.02544 0.0038-0.03812 0.0059-0.02553 0.0042-0.05104 0.0086-0.07697 0.01112-0.01026 1e-3 -0.02073 9.58e-4 -0.031 0.0017-0.02791 2e-3 -0.05579 4e-3 -0.08409 4e-3 -0.01539 0-0.0306-0.0015-0.04587-2e-3 -0.02298-8.73e-4 -0.04573-1e-3 -0.06889-0.0034-0.03923-0.0036-0.07837-0.0096-0.11722-0.0171-3.97e-4 -7.9e-5 -7.92e-4 -7.9e-5 -0.0013-1.58e-4 -0.0053-0.0011-0.01048-0.0027-0.01582-4e-3 -0.03288-0.0071-0.0656-0.01497-0.09796-0.02474-0.01261-0.0038-0.02457-0.0088-0.03694-0.01282-0.02442-0.0083-0.04883-0.01646-0.07284-0.0264-0.01646-0.0069-0.03209-0.01497-0.0481-0.02234-0.01903-9e-3 -0.03804-0.01731-0.05659-0.0272-0.01924-0.01026-0.03757-0.02187-0.05612-0.03313-0.01454-0.0088-0.02916-0.01689-0.04336-0.02639-0.02228-0.01497-0.04344-0.03115-0.06453-0.04749-0.0096-0.0075-0.01967-0.01411-0.02916-0.02196-0.02702-0.02219-0.0527-0.04573-0.07743-0.07006-0.0032-3e-3 -0.0067-0.0055-0.0098-0.0088l-0.0016-0.0016c-0.0013-0.0012-0.0023-0.0023-0.0036-0.0036l-4.9473-4.9471c-0.46428-0.46421-0.46428-1.217 0-1.6813 0.23214-0.23214 0.53641-0.34825 0.84059-0.34817 0.30419 7.9e-5 0.60853 0.11611 0.8406 0.34817l3.078 3.0779c-0.34072-3.7489-3.1072-6.9951-6.9802-7.7655-0.53157-0.10572-1.0663-0.1609-1.5979-0.16723-1.1518-0.013683-2.2888 0.20122-3.3474 0.62597-0.081477 0.032646-0.1624 0.066576-0.24284 0.10177-0.96574 0.4218-1.8605 1.0211-2.6341 1.7827-0.46785 0.4608-1.2206 0.45477-1.6812-0.013042-0.46072-0.46785-0.45485-1.2205 0.013063-1.6812 0.6564-0.64626 1.3812-1.2006 2.1558-1.6574 1.704-1.0048 3.6482-1.5373 5.6316-1.5373h8.13e-5c0.7202 7.91e-5 1.446 0.070296 2.1669 0.21367 4.9052 0.97573 8.4128 5.0656 8.8772 9.804l2.7844-2.7843c0.4642-0.46428 1.217-0.46428 1.6813 0 0.46404 0.46428 0.46404 1.2171-2.4e-4 1.6813z" />
</svg>
