<?xml version="1.0" standalone="no"?>
<!DOCTYPE svg PUBLIC "-//W3C//DTD SVG 20010904//EN"
 "http://www.w3.org/TR/2001/REC-SVG-20010904/DTD/svg10.dtd">
<svg version="1.0" xmlns="http://www.w3.org/2000/svg"
 width="500.000000pt" height="500.000000pt" viewBox="0 0 500.000000 500.000000"
 preserveAspectRatio="xMidYMid meet">
<metadata>
Created by potrace 1.14, written by Peter Selinger 2001-2017
</metadata>
<g transform="translate(0.000000,500.000000) scale(0.100000,-0.100000)"
fill="#000000" stroke="none">
<path d="M0 2500 l0 -2500 215 0 c186 0 215 2 215 15 0 9 -7 18 -15 21 -21 8
-19 60 2 68 18 7 33 -9 33 -36 0 -9 5 -29 12 -43 11 -25 11 -25 145 -25 73 0
133 3 133 6 0 3 -4 13 -10 23 -5 10 -10 45 -11 78 -2 52 -4 59 -21 59 -16 -1
-20 7 -24 44 -6 76 -10 94 -23 98 -7 2 -19 -6 -28 -17 -14 -20 -16 -21 -27 -6
-11 15 -13 15 -25 1 -7 -8 -13 -31 -14 -51 -1 -40 -23 -47 -51 -16 -14 15 -15
24 -6 40 6 12 17 21 25 21 8 0 15 7 15 15 0 8 5 15 11 15 6 0 9 10 7 23 -4 29
-22 29 -26 -1 -3 -18 -8 -22 -25 -16 -39 11 -51 21 -38 28 6 4 11 2 11 -4 0
-6 4 -9 9 -5 5 3 9 40 8 82 0 48 3 78 10 80 6 2 13 -6 15 -18 4 -33 26 -35 38
-4 13 35 34 27 38 -14 2 -20 8 -31 15 -28 7 3 11 10 9 17 -6 26 9 51 28 45 13
-4 19 2 24 26 11 58 8 79 -14 79 -11 0 -20 5 -20 12 0 9 -3 9 -12 0 -17 -17
-28 -15 -28 7 0 16 8 20 43 23 28 2 42 8 43 18 1 8 2 21 3 28 0 6 14 12 29 12
15 0 34 6 40 12 10 10 15 10 21 -1 8 -12 35 -13 158 -7 158 8 487 22 878 36
601 22 578 21 593 41 8 11 25 19 43 19 16 0 29 5 29 10 0 6 11 10 25 10 25 0
25 0 9 -26 -13 -19 -14 -28 -5 -37 13 -13 15 -47 2 -47 -5 0 -12 12 -14 28 -4
26 -4 26 -12 5 -4 -13 -11 -23 -16 -23 -5 0 -9 -5 -9 -11 0 -6 7 -9 15 -5 20
7 19 1 -2 -20 -16 -16 -9 -29 12 -24 9 1 35 -28 35 -39 0 -6 -4 -11 -10 -11
-5 0 -10 -9 -10 -20 0 -22 -20 -26 -52 -9 -14 7 -18 8 -14 0 9 -14 -30 -51
-54 -51 -26 0 -26 -28 1 -51 19 -17 20 -20 6 -34 -9 -8 -20 -15 -24 -14 -27 5
-43 -3 -43 -21 0 -11 5 -20 10 -20 6 0 10 -6 10 -13 0 -16 36 -47 54 -47 9 0
12 -7 9 -19 -5 -19 -19 -20 -54 -7 -12 6 -14 0 -11 -31 2 -21 12 -46 21 -57
20 -23 78 -53 111 -57 14 -2 28 -8 32 -14 4 -6 43 -9 89 -7 61 1 91 7 119 23
48 27 119 22 215 -15 39 -15 75 -29 80 -30 6 -1 20 -7 32 -14 12 -6 48 -18 81
-26 33 -8 80 -28 105 -45 l45 -30 866 -1 866 0 0 2500 0 2500 -2500 0 -2500 0
0 -2500z m2163 2424 c9 -4 17 -9 17 -13 0 -4 15 -7 33 -6 24 0 32 4 31 18 -3
26 41 22 59 -7 15 -23 15 -24 -25 -42 -22 -10 -50 -17 -62 -16 -40 3 -67 13
-61 22 3 6 2 10 -4 10 -6 0 -8 7 -4 15 3 10 1 15 -7 13 -7 -2 -15 3 -17 11 -4
9 -1 11 8 7 8 -3 22 -9 32 -12z m497 -4 c0 -12 -7 -20 -17 -20 -17 -1 -17 -2
0 -14 20 -16 6 -32 -18 -22 -20 7 -20 56 0 56 8 0 15 5 15 10 0 6 5 10 10 10
6 0 10 -9 10 -20z m-630 -15 c0 -12 -13 -15 -62 -13 -50 1 -54 2 -20 5 23 2
40 8 37 14 -4 5 5 9 19 9 16 0 26 -6 26 -15z m-277 -32 c-7 -2 -19 -2 -25 0
-7 3 -2 5 12 5 14 0 19 -2 13 -5z m728 -39 c38 -19 59 -38 59 -53 0 -6 5 -11
10 -11 6 0 10 -37 10 -90 l0 -90 -69 0 c-61 0 -70 3 -76 20 -3 11 -3 24 0 30
11 17 -7 101 -22 107 -27 11 -33 -21 -33 -188 0 -140 3 -169 16 -180 13 -10
17 -10 25 2 9 14 10 22 14 74 1 17 2 36 3 43 2 8 24 12 72 12 l70 0 0 -75 c0
-43 -4 -75 -10 -75 -5 0 -10 -6 -10 -13 0 -25 -39 -55 -95 -72 -48 -15 -62
-16 -98 -6 -118 36 -131 61 -135 281 -4 176 4 223 42 259 53 50 157 61 227 25z
m-1018 8 c16 -2 17 -23 17 -282 l0 -280 -65 0 -65 0 0 114 c0 62 -3 129 -7
147 -8 36 -9 29 -29 -176 -7 -72 -16 -85 -61 -85 -50 0 -63 18 -63 89 0 33 -4
63 -10 66 -5 3 -10 32 -10 63 0 41 -3 53 -10 42 -5 -8 -10 -70 -10 -137 l0
-123 -65 0 -65 0 0 280 0 280 93 0 c110 0 115 -5 119 -105 2 -47 7 -60 20 -63
15 -3 18 7 20 75 3 67 6 79 24 88 17 8 106 12 167 7z m217 -283 l0 -280 -72 3
-73 3 -3 277 c-3 314 -12 285 89 280 l59 -4 0 -279z m1516 276 c52 -11 84 -66
84 -142 0 -64 -4 -71 -39 -96 -23 -15 -23 -17 -5 -24 41 -15 57 -53 57 -138 0
-136 -26 -155 -212 -155 l-131 0 0 279 0 280 43 3 c50 4 173 -1 203 -7z m390
0 c53 -12 84 -66 84 -148 0 -49 -4 -68 -20 -85 -11 -12 -20 -27 -20 -34 0 -8
9 -20 20 -28 18 -13 20 -26 20 -137 l0 -123 -70 0 -70 0 0 109 c0 117 -4 141
-26 141 -10 0 -13 -17 -13 -72 1 -40 1 -97 0 -125 l-1 -53 -75 0 -75 0 0 279
0 280 23 3 c29 4 196 -1 223 -7z m365 5 c16 0 19 -7 19 -55 l0 -55 -34 0 c-57
0 -66 -8 -66 -56 l0 -44 44 0 c47 0 56 -9 56 -60 0 -51 -9 -60 -56 -60 l-44 0
0 -54 0 -55 53 -3 52 -3 3 -57 3 -58 -126 0 -125 0 0 280 0 279 88 3 c48 2 93
2 100 1 8 -2 22 -3 33 -3z m-1828 -12 c33 -17 42 -29 55 -74 14 -48 16 -164 3
-164 -5 0 -11 -13 -14 -30 -4 -18 -13 -30 -22 -30 -8 0 -15 -4 -15 -10 0 -5
-26 -10 -57 -12 l-58 -3 -3 -113 -3 -113 -72 3 -72 3 -3 278 -2 277 120 0 c73
0 130 -5 143 -12z m497 -9 c0 -5 -10 -9 -21 -9 -18 0 -19 2 -9 15 12 15 30 12
30 -6z m290 -303 c0 -35 -5 -56 -12 -59 -14 -4 -146 2 -165 8 -7 3 -13 20 -13
39 0 64 3 66 101 66 l89 0 0 -54z m-390 -326 c0 -5 -4 -10 -10 -10 -5 0 -10 5
-10 10 0 6 5 10 10 10 6 0 10 -4 10 -10z m-40 -20 c0 -5 -9 -10 -20 -10 -11 0
-20 5 -20 10 0 6 9 10 20 10 11 0 20 -4 20 -10z m-80 -20 c0 -5 -11 -10 -24
-10 -14 0 -28 5 -31 10 -4 6 7 10 24 10 17 0 31 -4 31 -10z m421 -42 c0 -10 2
-10 6 0 2 6 19 12 36 12 24 0 28 -3 17 -10 -11 -7 -11 -10 -2 -10 7 0 11 -4 7
-9 -3 -5 3 -12 12 -14 10 -3 1 -5 -20 -6 -21 0 -46 -8 -54 -17 -15 -14 -17
-14 -26 1 -6 12 -5 20 3 25 7 4 9 13 6 19 -4 6 -12 9 -17 6 -5 -4 -9 -1 -9 4
0 15 40 14 41 -1z m-1021 -48 c0 -12 -9 -30 -20 -42 -11 -12 -20 -28 -20 -35
0 -18 -36 -17 -43 1 -3 8 1 17 10 20 12 5 13 9 3 21 -8 9 -8 15 -2 15 6 0 14
9 17 20 9 28 55 28 55 0z m150 16 c0 -9 -30 -14 -35 -6 -4 6 3 10 14 10 12 0
21 -2 21 -4z m-40 -28 c0 -6 -5 -26 -12 -44 -9 -25 -18 -33 -44 -37 -18 -3
-42 -3 -53 0 -20 5 -20 5 0 26 10 11 19 27 19 34 0 7 9 13 20 13 11 0 20 5 20
10 0 6 11 10 25 10 14 0 25 -5 25 -12z m220 -32 c0 -2 -9 -6 -20 -9 -11 -3
-20 -1 -20 4 0 5 9 9 20 9 11 0 20 -2 20 -4z m430 -24 c0 -15 -4 -32 -9 -37
-19 -21 -39 -245 -22 -245 6 0 11 -11 11 -24 0 -14 5 -28 10 -31 6 -3 10 -21
10 -40 0 -26 8 -39 36 -62 27 -22 37 -38 41 -70 3 -24 9 -40 13 -38 5 3 21 0
37 -6 15 -6 47 -8 71 -4 33 5 45 12 52 30 7 18 14 23 26 18 13 -5 12 -1 -5 16
-12 12 -19 27 -15 32 4 6 9 7 13 3 12 -17 45 -40 37 -26 -5 9 -3 13 5 11 28
-3 39 1 39 16 0 8 5 15 10 15 6 0 10 7 10 15 0 8 9 20 20 27 11 7 20 18 20 25
0 7 3 13 8 13 8 0 32 49 32 67 0 28 28 11 52 -32 9 -16 24 -31 32 -33 13 -3
16 20 19 170 1 101 3 65 3 -87 0 -143 -2 -244 -4 -225 -2 29 -10 39 -42 56
l-38 21 -22 -43 c-13 -24 -31 -52 -41 -63 -11 -11 -19 -24 -19 -28 0 -5 -9
-15 -20 -23 -21 -15 -28 -70 -10 -70 6 0 10 -42 10 -105 0 -63 -4 -105 -10
-105 -5 0 -10 23 -10 51 0 31 -4 48 -10 44 -5 -3 -10 -42 -10 -86 0 -46 4 -79
10 -79 12 0 13 -87 1 -92 -5 -1 -11 -25 -15 -53 -10 -85 -18 -116 -32 -122
-21 -8 -17 -20 6 -18 11 1 26 8 33 17 6 9 22 19 35 23 22 6 26 0 23 -37 -1
-10 3 -18 8 -18 14 0 14 -67 1 -75 -5 -3 -10 -2 -10 3 0 14 -48 33 -55 22 -4
-6 -3 -10 2 -10 4 0 14 -13 21 -28 11 -26 17 -28 55 -26 23 1 58 6 77 11 l35
9 1 79 c1 44 2 185 3 314 0 129 4 232 7 228 8 -8 7 -624 -1 -637 -10 -16 -16
-273 -7 -287 4 -6 20 -14 35 -17 35 -6 47 -14 47 -31 0 -8 10 -20 23 -26 12
-7 25 -17 29 -24 9 -14 132 -19 185 -7 28 6 52 4 88 -8 l50 -17 -50 -6 c-27
-3 -119 -9 -202 -13 -130 -6 -153 -5 -153 8 0 8 5 19 11 25 9 9 6 19 -10 42
-24 34 -60 42 -60 14 0 -10 -2 -187 -5 -393 -3 -247 -1 -390 6 -419 15 -59 24
-36 31 72 2 48 10 94 17 102 6 7 30 15 53 17 34 2 41 7 39 21 -2 12 4 17 23
17 22 0 25 -3 20 -20 -4 -11 -2 -20 4 -20 6 0 11 14 11 30 0 17 5 30 10 30 6
0 10 25 10 55 0 30 6 65 13 78 6 12 13 23 13 25 1 1 12 5 25 7 13 3 25 9 27
15 4 12 42 14 42 2 0 -4 -9 -14 -20 -22 -17 -12 -20 -26 -20 -97 0 -49 -4 -83
-10 -83 -13 0 -13 -101 1 -120 8 -12 10 -9 6 13 -3 18 0 27 9 27 8 0 11 -6 8
-15 -10 -25 5 -68 22 -61 12 5 12 2 4 -15 -12 -22 -4 -79 11 -79 5 0 9 -11 9
-24 0 -13 7 -29 15 -36 8 -7 15 -26 15 -41 0 -22 -6 -32 -25 -39 -18 -7 -25
-17 -25 -35 0 -17 -5 -25 -18 -25 -10 0 -24 -9 -32 -20 -15 -21 -50 -28 -50
-10 0 7 -40 10 -115 9 -120 -3 -120 -3 -114 -45 0 -4 -5 -10 -11 -14 -7 -4
-11 -13 -9 -19 3 -8 12 -6 27 7 12 10 19 22 15 26 -3 3 -1 6 5 6 7 0 12 6 12
13 0 8 11 12 28 11 15 -1 37 -3 50 -3 13 -1 20 -5 17 -11 -4 -6 6 -10 22 -10
l28 -1 -30 -14 -30 -14 45 0 c61 0 120 -11 120 -22 0 -5 11 -9 24 -9 27 0 126
-29 140 -41 5 -4 -4 -10 -20 -14 -16 -3 -48 -10 -72 -15 -23 -6 -59 -10 -79
-10 -56 0 -35 -8 37 -14 77 -6 140 -23 140 -37 0 -6 9 -8 20 -4 15 5 20 2 20
-10 0 -14 -9 -16 -52 -13 -46 3 -53 1 -50 -14 2 -10 -2 -18 -8 -18 -6 0 -8 -4
-5 -10 4 -6 -46 -10 -142 -11 -159 0 -224 -7 -230 -25 -2 -6 5 -14 17 -17 11
-3 20 -12 20 -21 0 -12 -10 -16 -44 -16 -26 0 -46 -5 -49 -12 -3 -9 -12 -5
-26 11 -12 14 -19 31 -17 38 4 10 -24 13 -140 13 l-144 0 -11 27 c-23 61 -44
99 -66 121 -13 12 -29 36 -35 53 -13 38 -67 99 -87 99 -8 0 -12 3 -8 6 6 7
-37 54 -50 54 -4 0 -2 -5 5 -12 7 -7 12 -20 12 -30 0 -15 -6 -17 -29 -13 -38
6 -49 -18 -15 -34 22 -10 34 -31 16 -31 -4 0 -13 -13 -20 -30 -8 -16 -20 -30
-27 -30 -8 0 -18 -8 -24 -18 -9 -16 -10 -16 -16 0 -7 17 -27 26 -23 11 1 -5
-4 -18 -11 -31 -7 -13 -10 -31 -6 -40 5 -14 9 -13 20 8 14 25 14 25 15 3 0
-21 9 -28 26 -20 9 4 25 -33 19 -44 -4 -5 -2 -16 4 -22 7 -9 6 -26 -3 -57
l-13 -45 -8 42 c-4 24 -11 43 -16 43 -6 0 -7 -5 -4 -10 3 -6 -1 -10 -9 -10 -9
0 -19 0 -23 0 -5 0 -8 23 -8 51 -1 50 -21 82 -36 57 -4 -6 -18 -9 -32 -6 -21
4 -25 2 -21 -15 5 -29 11 -32 40 -19 14 7 23 8 19 2 -3 -5 -1 -10 5 -10 6 0
10 -12 8 -28 -3 -30 23 -26 -308 -47 -69 -4 -130 -12 -136 -16 -6 -5 -60 -8
-120 -6 -60 2 -99 2 -87 -1 13 -2 23 -8 23 -13 0 -5 -36 -9 -80 -9 -84 0 -110
16 -37 23 23 2 -3 3 -58 3 -74 -1 -99 -4 -97 -13 1 -9 -12 -13 -41 -13 -40 0
-67 -13 -67 -32 0 -12 38 -10 45 2 8 13 55 13 55 1 0 -5 8 -11 18 -13 9 -3
-41 -8 -111 -12 -91 -6 -132 -5 -140 3 -14 14 -107 15 -107 1 0 -6 -40 -10
-100 -10 -97 0 -100 1 -100 23 0 22 1 22 141 19 116 -2 143 0 156 13 14 14 -6
15 -211 9 -225 -7 -226 -7 -226 14 0 19 -25 35 -55 37 -27 2 -74 31 -79 50 -2
11 -9 38 -15 60 -15 52 -51 212 -57 250 -3 17 -8 37 -11 45 -3 8 -7 30 -9 49
-2 19 -8 39 -14 45 -5 5 -10 36 -10 68 0 32 -4 58 -10 58 -5 0 -10 18 -10 40
0 22 -4 40 -10 40 -5 0 -10 18 -10 40 0 22 -4 40 -8 40 -5 0 -10 21 -11 48 -1
26 -6 48 -11 50 -6 2 -10 20 -10 41 0 20 -5 42 -11 48 -16 16 32 62 78 75 33
9 35 11 28 41 -3 18 -9 53 -12 80 -3 26 -9 47 -14 47 -5 0 -9 18 -9 40 0 22
-4 40 -10 40 -5 0 -10 20 -10 45 0 25 -4 45 -10 45 -5 0 -10 18 -10 39 0 22
-4 43 -10 46 -5 3 -10 19 -10 34 0 38 -10 44 -31 20 -13 -15 -27 -20 -56 -17
-33 3 -41 8 -56 40 -28 57 -17 78 44 78 27 0 49 -4 49 -10 0 -5 7 -10 15 -10
18 0 20 16 3 23 -10 4 -10 8 1 15 9 7 10 12 2 16 -6 4 -11 20 -11 35 0 15 -3
31 -7 35 -7 7 -9 16 -16 71 -3 17 -7 37 -10 45 -12 33 -39 148 -47 201 -5 31
-14 68 -19 82 -6 15 -7 27 -4 27 4 0 2 5 -5 12 -7 7 -12 27 -12 44 0 18 -5 36
-11 39 -5 4 -9 17 -8 28 2 23 -5 59 -21 112 -5 17 -12 46 -15 65 -7 39 -18 84
-35 145 -7 22 -15 67 -19 100 -4 33 -11 67 -15 76 -10 24 15 64 41 64 13 0 28
-6 35 -13 9 -9 9 -12 -1 -12 -7 0 -9 -5 -4 -12 4 -7 15 -33 24 -58 l15 -45 60
-7 c49 -6 394 -13 894 -19 52 -1 129 4 170 10 41 6 119 11 172 11 53 0 100 4
103 10 3 6 19 10 36 10 16 0 29 4 29 8 0 4 20 9 45 10 33 1 47 -3 54 -16 6 -9
10 -12 10 -7 0 6 -6 19 -14 29 -8 11 -15 28 -15 38 0 10 -4 18 -10 18 -5 0
-10 7 -10 15 0 35 -23 65 -52 65 -33 0 -34 4 -8 32 15 16 20 36 20 75 0 49 2
53 27 59 17 5 28 3 31 -4 3 -9 9 -8 24 2 14 10 36 13 74 9 43 -5 55 -3 60 10
5 14 8 14 20 2 16 -16 19 -45 4 -45 -5 0 -10 5 -10 11 0 5 -4 7 -10 4 -5 -3
-10 -22 -10 -41 0 -19 -4 -34 -10 -34 -5 0 -10 7 -10 15 0 16 -43 31 -60 20
-5 -3 -13 1 -16 9 -8 21 -44 20 -60 -1 -16 -21 -18 -79 -4 -88 6 -3 10 -17 10
-31 0 -13 5 -24 10 -24 6 0 10 -9 10 -20 0 -11 4 -20 9 -20 5 0 12 -8 16 -19
3 -10 17 -31 30 -47 33 -39 78 -129 73 -146 -3 -7 -12 3 -22 24 -20 41 -36 43
-31 3 1 -14 -1 -25 -5 -25 -10 0 -21 30 -15 40 3 4 -2 10 -10 14 -8 3 -15 13
-15 23 0 15 -2 15 -9 4 -5 -8 -7 -20 -4 -28 8 -21 -8 -15 -33 12 -23 25 -64
34 -64 15 0 -5 5 -10 11 -10 6 0 4 -7 -5 -15 -8 -8 -26 -15 -40 -15 -16 0 -26
-6 -26 -14 0 -13 -45 -28 -55 -18 -9 9 -5 42 5 42 6 0 10 7 10 15 0 8 -4 15
-8 15 -14 0 -32 -23 -32 -42 0 -13 -10 -20 -30 -25 -17 -3 -33 -10 -36 -14 -3
-5 -19 -9 -36 -9 -17 0 -28 3 -25 7 18 17 -33 32 -114 33 -99 0 -114 -9 -111
-68 2 -20 -3 -39 -10 -43 -10 -6 -10 -15 0 -42 7 -18 12 -43 12 -54 0 -12 8
-23 18 -25 20 -6 27 -39 8 -37 -30 4 -44 -3 -55 -27 -10 -23 -9 -26 9 -31 11
-3 20 -14 20 -24 0 -10 5 -21 10 -24 6 -3 10 -26 10 -51 0 -24 5 -44 10 -44 6
0 10 -32 10 -75 0 -43 4 -75 10 -75 6 0 10 -18 10 -40 0 -35 3 -40 23 -40 13
0 26 -3 30 -6 3 -4 41 -7 84 -8 l78 -1 6 -40 c5 -31 6 -34 8 -12 1 20 7 31 21
34 11 3 20 12 20 19 0 11 17 14 68 14 37 0 74 -4 81 -9 9 -6 22 -6 33 0 22 12
24 29 4 29 -8 0 -17 4 -20 9 -4 5 6 8 20 6 15 -1 28 3 31 11 3 8 12 14 20 14
8 0 12 4 9 9 -3 5 3 11 14 14 11 3 20 9 18 14 -3 14 45 102 59 107 19 8 17
-48 -3 -87 -17 -32 -62 -77 -77 -77 -13 0 -37 -27 -30 -34 4 -3 32 -6 63 -6
44 0 61 4 75 20 27 29 45 25 45 -10 0 -16 4 -30 9 -30 16 0 76 -62 76 -79 0
-12 8 -15 35 -12 19 1 38 8 43 15 5 8 9 7 16 -3 6 -9 15 -10 27 -5 11 5 33 9
49 8 89 -2 95 -4 95 -23 0 -11 -4 -23 -10 -26 -17 -11 -11 -37 7 -33 11 2 20
15 23 33 7 39 37 45 61 14 16 -21 19 -21 19 -6 0 11 12 22 30 28 17 6 30 17
30 24 0 7 6 16 13 18 8 4 7 6 -4 6 -8 1 -24 -7 -35 -17 -10 -10 -27 -16 -36
-14 -16 3 -15 6 5 26 24 23 56 33 137 42 33 4 41 2 30 -5 -8 -6 -28 -11 -45
-12 -16 -1 5 -5 48 -9 43 -4 94 -4 114 0 36 9 86 51 81 69 -2 5 8 18 21 30 24
21 24 22 5 36 -10 8 -22 15 -26 15 -4 0 -4 16 -1 36 4 23 2 39 -6 44 -9 5 -10
13 -3 26 11 21 32 148 32 194 0 17 5 30 10 30 15 0 12 30 -6 47 -14 14 -16 14
-20 -4 -6 -21 -61 -47 -70 -32 -15 24 -84 0 -84 -30 0 -6 -4 -11 -10 -11 -5 0
-10 -16 -10 -35 0 -19 5 -35 10 -35 6 0 10 -20 10 -45 0 -25 -4 -45 -10 -45
-5 0 -10 7 -10 15 0 12 -7 14 -27 9 -16 -4 -31 -12 -35 -18 -6 -8 -11 -7 -17
2 -6 10 -24 12 -67 8 -115 -12 -190 -17 -244 -17 -156 -1 -155 -1 -189 32 -24
23 -30 34 -22 42 8 8 11 8 11 -1 0 -7 5 -12 10 -12 6 0 10 25 10 55 0 30 5 56
10 56 6 1 19 2 30 3 25 1 50 27 33 33 -7 3 -13 9 -13 15 0 6 6 8 13 5 10 -4
13 2 9 18 -2 12 1 26 7 29 15 10 14 76 -1 76 -9 0 -9 3 -1 11 22 22 28 0 31
-108 2 -59 7 -110 11 -113 5 -3 11 -12 15 -20 3 -8 4 0 1 18 -2 17 0 32 5 32
6 0 10 9 10 21 0 11 6 27 14 34 12 12 15 11 20 -8 3 -12 6 -43 6 -68 0 -42 -3
-48 -30 -59 -33 -14 -38 -25 -14 -34 8 -3 12 -2 9 3 -6 10 13 26 30 26 6 0 14
18 20 40 5 22 12 42 16 45 4 3 9 19 12 35 3 17 3 -14 0 -67 l-5 -98 25 0 c14
0 33 7 42 17 11 11 19 13 24 5 3 -6 27 -10 52 -9 24 0 50 -3 57 -7 7 -4 12 -1
12 8 0 20 7 20 26 1 9 -8 25 -15 37 -14 12 0 16 3 10 6 -7 2 -13 11 -13 19 0
8 -4 14 -9 14 -5 0 -16 6 -23 13 -7 8 -26 17 -41 21 -22 5 -27 3 -27 -11 0
-14 -2 -15 -12 -4 -10 11 -10 14 0 18 14 6 17 53 2 53 -5 0 -10 -10 -10 -22
-1 -21 -2 -21 -11 -5 -5 9 -7 22 -4 27 3 6 1 10 -5 10 -6 0 -8 4 -5 10 3 5 -9
25 -27 44 -18 19 -44 49 -58 66 -14 17 -29 36 -35 43 -5 7 -11 19 -13 27 -5
24 -46 79 -57 77 -5 -1 -11 14 -13 33 -1 19 -7 44 -11 55 -35 79 -37 110 -7
99 20 -8 54 -82 96 -216 10 -31 23 -62 29 -70 42 -50 71 -78 80 -78 6 0 11 -5
11 -11 0 -6 6 -9 13 -6 6 2 17 -9 24 -25 17 -40 38 -44 68 -14 l26 27 -30 28
c-17 16 -31 36 -31 45 0 9 -8 16 -19 16 -15 0 -19 10 -24 58 -9 95 1 202 24
240 16 28 17 33 4 28 -13 -4 -15 1 -13 30 1 19 8 40 15 46 7 6 13 19 13 29 0
12 5 16 15 13 20 -8 31 23 18 55 -11 30 -4 55 15 57 6 1 17 2 22 3 6 0 10 15
10 31 0 17 5 30 10 30 6 0 10 -13 10 -28z m254 -27 c39 -17 47 -31 56 -105 4
-30 9 -62 11 -70 3 -10 -5 -16 -23 -18 -25 -3 -29 1 -40 41 -9 36 -15 43 -31
39 -10 -3 -23 1 -27 8 -4 7 -24 14 -43 15 -19 1 -39 5 -45 9 -14 8 -22 -17
-22 -70 0 -32 4 -44 14 -44 10 0 13 -8 10 -25 -3 -15 6 -47 22 -80 22 -43 30
-53 41 -44 7 6 13 24 13 40 0 18 5 29 14 29 16 0 11 76 -8 99 -8 11 -8 13 1 8
6 -4 13 -1 15 5 3 8 9 4 17 -10 6 -12 18 -22 26 -22 8 0 15 -4 15 -10 0 -5 9
-10 20 -10 11 0 20 -4 20 -10 0 -5 -9 -10 -20 -10 -18 0 -20 -7 -20 -80 0 -81
-6 -93 -35 -64 -15 15 -18 15 -38 -2 -12 -11 -25 -23 -29 -29 -4 -6 -8 -2 -8
9 0 10 -13 35 -29 55 -33 41 -41 79 -48 217 -4 88 -3 92 23 123 25 30 30 32
71 26 24 -3 59 -13 77 -20z m-784 -80 c14 -30 28 -55 33 -55 4 0 7 -13 7 -30
0 -16 5 -30 10 -30 6 0 10 -7 10 -15 0 -8 4 -23 9 -33 13 -24 29 -89 36 -142
4 -32 1 -51 -9 -65 -15 -19 -15 -19 -16 12 0 17 -4 35 -10 38 -5 3 -10 19 -10
34 0 21 -6 31 -22 36 -14 4 -18 8 -10 12 14 6 17 53 2 53 -5 0 -10 11 -10 25
0 14 -4 25 -8 25 -4 0 -9 12 -10 28 -1 15 -7 29 -12 30 -6 2 -10 14 -10 26 0
25 -21 76 -32 76 -4 0 -5 7 -2 15 11 28 29 15 54 -40z m-49 -35 c5 0 9 -9 9
-20 0 -11 5 -20 10 -20 6 0 10 -9 10 -20 0 -15 -7 -20 -29 -20 -16 0 -31 5
-33 11 -3 8 -11 8 -27 -2 -19 -11 -25 -11 -28 -1 -3 6 -11 12 -19 12 -8 0 -14
5 -14 10 0 6 -9 10 -19 10 -11 0 -23 5 -27 11 -3 6 -17 8 -30 5 -17 -5 -24 -2
-24 9 0 11 12 15 50 15 28 0 50 5 50 10 0 6 4 10 9 10 5 0 7 -8 4 -18 -7 -26
39 -45 72 -30 27 12 29 16 16 38 -6 8 -7 19 -3 25 4 5 8 0 10 -12 2 -13 8 -23
13 -23z m-1776 -50 c3 -5 -3 -10 -15 -10 -12 0 -18 5 -15 10 3 6 10 10 15 10
5 0 12 -4 15 -10z m2437 -150 c3 -20 0 -30 -9 -30 -7 0 -13 11 -13 25 0 14 -4
25 -10 25 -5 0 -10 7 -10 15 0 29 37 -2 42 -35z m248 -35 c0 -42 -10 -45 -27
-9 -14 30 -9 44 13 44 9 0 14 -11 14 -35z m-1540 -111 c0 -2 -15 -4 -32 -4
-23 0 -29 3 -19 9 12 8 51 4 51 -5z m1370 -4 c9 -16 8 -20 -5 -20 -8 0 -15 9
-15 20 0 11 2 20 5 20 2 0 9 -9 15 -20z m-1470 -35 c0 -8 -4 -15 -10 -15 -5 0
-10 7 -10 15 0 8 5 15 10 15 6 0 10 -7 10 -15z m692 -26 c-10 -4 -24 1 -33 10
-25 24 -12 32 21 13 24 -14 26 -18 12 -23z m-452 16 c0 -8 -4 -15 -9 -15 -5 0
-11 7 -15 15 -3 9 0 15 9 15 8 0 15 -7 15 -15z m1567 -27 c-3 -7 -5 -2 -5 12
0 14 2 19 5 13 2 -7 2 -19 0 -25z m-852 -5 c-4 -10 -11 -35 -15 -56 -11 -53
-20 -58 -20 -9 0 23 5 42 10 42 6 0 10 9 10 20 0 11 5 20 11 20 7 0 8 -7 4
-17z m-940 -13 c3 -5 1 -10 -4 -10 -6 0 -11 5 -11 10 0 6 2 10 4 10 3 0 8 -4
11 -10z m98 4 c3 -4 0 -13 -8 -21 -13 -13 -17 -13 -30 1 -8 8 -15 17 -15 20 0
8 45 8 53 0z m-38 -44 c3 -5 -1 -10 -11 -10 -9 0 -23 -8 -30 -17 -9 -12 -13
-13 -14 -5 0 29 41 54 55 32z m55 -18 c0 -4 -12 -20 -27 -36 -17 -19 -23 -31
-15 -34 7 -2 12 -20 12 -39 0 -27 3 -34 15 -29 10 3 15 -1 15 -12 0 -9 3 -34
6 -54 6 -34 5 -37 -15 -33 -11 2 -21 0 -21 -6 0 -8 15 -13 33 -10 4 0 8 -5 8
-11 1 -7 5 10 9 39 8 56 38 102 79 121 30 15 88 16 96 2 3 -5 15 -10 26 -10
10 0 19 -4 19 -9 0 -5 9 -13 20 -16 11 -3 20 -12 20 -20 0 -7 5 -15 11 -17 7
-2 12 -27 12 -61 0 -51 -3 -60 -29 -82 -16 -14 -40 -26 -54 -26 -49 -3 -105 3
-114 12 -6 5 -18 9 -27 9 -10 0 -21 9 -24 20 -7 23 -35 27 -35 5 0 -8 -7 -15
-15 -15 -8 0 -15 -9 -15 -20 0 -11 5 -20 11 -20 8 0 8 -5 -1 -15 -10 -12 -10
-15 3 -15 8 0 18 6 21 13 3 6 3 2 0 -10 -3 -15 0 -23 13 -26 17 -4 17 -4 0
-12 -13 -5 -26 0 -46 19 -15 14 -31 23 -36 19 -4 -5 -5 -3 -2 4 4 6 0 18 -8
26 -8 9 -15 25 -15 36 0 12 -4 21 -10 21 -5 0 -10 8 -10 18 0 10 -5 23 -11 29
-5 5 -10 44 -10 86 0 74 1 78 35 112 19 19 42 35 51 35 8 0 15 5 15 10 0 6 2
10 5 10 3 0 5 -3 5 -8z m451 -23 c29 -31 47 -74 35 -86 -3 -4 -6 2 -6 11 0 10
-18 35 -40 56 -22 21 -40 41 -40 44 0 15 25 3 51 -25z m259 2 c0 -6 -4 -13
-10 -16 -5 -3 -10 1 -10 9 0 9 5 16 10 16 6 0 10 -4 10 -9z m879 -48 c0 -21
-4 -47 -9 -58 -6 -14 -9 -4 -9 38 -1 32 3 57 9 57 6 0 10 -17 9 -37z m-899 -3
c0 -11 -4 -20 -10 -20 -5 0 -10 9 -10 20 0 11 5 20 10 20 6 0 10 -9 10 -20z
m-1909 -123 c25 -19 39 -52 39 -91 0 -32 -3 -36 -25 -36 -14 0 -25 6 -25 13 0
8 -3 7 -10 -3 -7 -12 -12 -12 -22 -2 -21 21 -38 93 -27 114 11 21 46 23 70 5z
m2809 -54 c0 -17 -4 -35 -10 -38 -6 -4 -10 14 -10 47 0 38 3 49 10 38 5 -8 10
-29 10 -47z m-1000 -23 c0 -5 9 -10 20 -10 11 0 20 -4 20 -10 0 -5 12 -10 26
-10 14 0 32 -7 40 -15 8 -8 21 -12 28 -9 8 3 17 1 21 -5 4 -7 -5 -11 -24 -11
-17 0 -31 -4 -31 -9 0 -12 55 -21 165 -27 50 -3 92 -8 94 -10 10 -10 -10 -15
-63 -16 -31 -1 -56 -5 -56 -10 0 -4 -7 -8 -15 -8 -8 0 -15 -4 -15 -10 0 -5 17
-10 38 -10 50 -1 76 -21 68 -54 -3 -15 -11 -26 -16 -26 -6 0 -10 -5 -10 -11 0
-21 -42 -71 -50 -59 -6 9 -12 9 -28 -1 -19 -12 -23 -11 -36 6 -14 18 -15 18
-16 3 0 -28 -20 -21 -20 6 0 14 -4 28 -10 31 -5 3 -10 33 -10 66 0 38 -4 58
-10 54 -5 -3 -10 1 -10 9 0 18 16 21 25 6 7 -12 45 -14 45 -2 -1 18 -18 27
-58 30 -37 3 -51 11 -97 57 -29 29 -51 56 -48 59 10 10 33 7 33 -4z m210 -60
c0 -5 -7 -10 -15 -10 -8 0 -15 5 -15 10 0 6 7 10 15 10 8 0 15 -4 15 -10z
m441 -7 c41 -8 55 -28 34 -49 -15 -16 -16 -16 -13 2 2 16 -5 20 -47 25 -54 7
-95 2 -95 -12 0 -5 5 -9 10 -9 6 0 10 -7 10 -16 0 -18 24 -44 40 -44 7 0 24
-13 38 -28 15 -16 41 -35 59 -42 17 -8 29 -18 27 -22 -7 -12 -62 -10 -69 2 -3
6 -31 10 -61 10 -30 0 -54 5 -54 10 0 6 -9 10 -20 10 -11 0 -20 5 -20 10 0 6
-7 10 -15 10 -8 0 -15 5 -15 10 0 6 -9 10 -19 10 -21 0 -31 19 -31 56 0 13 -4
24 -10 24 -5 0 -10 5 -10 10 0 6 14 10 30 10 17 0 30 -4 30 -10 0 -5 -4 -10
-10 -10 -5 0 -10 -4 -10 -10 0 -5 9 -10 20 -10 11 0 20 5 20 10 0 6 9 10 20
10 11 0 20 6 20 14 0 10 -7 12 -22 9 -18 -5 -20 -3 -11 7 6 6 27 12 47 12 20
0 39 4 42 10 3 5 17 7 31 3 14 -3 38 -9 54 -12z m409 -35 c0 -15 -4 -29 -9
-33 -5 -3 -9 -18 -9 -34 1 -19 -8 -38 -26 -56 -30 -29 -48 -26 -28 5 7 11 12
27 12 35 0 8 5 15 10 15 6 0 10 11 10 24 0 14 5 28 10 31 6 3 10 21 10 38 0
24 3 28 10 17 5 -8 10 -27 10 -42z m-1043 -10 c-3 -8 -6 -5 -6 6 -1 11 2 17 5
13 3 -3 4 -12 1 -19z m963 -38 c0 -22 -4 -40 -10 -40 -5 0 -10 18 -10 40 0 22
5 40 10 40 6 0 10 -18 10 -40z m-983 8 c-3 -8 -6 -5 -6 6 -1 11 2 17 5 13 3
-3 4 -12 1 -19z m763 -18 c0 -5 -4 -10 -10 -10 -5 0 -10 5 -10 10 0 6 5 10 10
10 6 0 10 -4 10 -10z m-420 -20 c0 -5 7 -10 15 -10 8 0 15 -4 15 -10 0 -5 12
-10 26 -10 14 0 51 -12 82 -27 l56 -28 -33 -3 c-19 -2 -38 1 -44 7 -6 6 -19
11 -29 11 -10 0 -18 5 -18 10 0 6 -7 10 -15 10 -18 0 -57 20 -67 35 -11 14
-10 25 2 25 6 0 10 -4 10 -10z m1595 -442 l-15 -22 0 22 c0 12 5 22 10 22 6 0
11 28 12 63 l2 62 3 -63 c3 -45 0 -68 -12 -84z m482 -20 c-2 -13 -4 -3 -4 22
0 25 2 35 4 23 2 -13 2 -33 0 -45z m-1162 32 c7 -11 75 -10 75 2 0 4 36 8 80
8 44 0 80 -3 80 -6 0 -3 -6 -12 -14 -20 -11 -10 -42 -14 -120 -14 -64 0 -106
-4 -106 -10 0 -14 -32 -12 -52 4 -22 16 -23 26 -3 26 8 0 15 5 15 10 0 13 37
13 45 0z m575 6 c0 -2 -3 -11 -6 -20 -9 -23 -24 -20 -24 4 0 11 7 20 15 20 8
0 15 -2 15 -4z m-300 -30 c0 -8 -4 -18 -10 -21 -5 -3 -10 -4 -10 -1 0 2 -3 11
-6 20 -4 11 -1 16 10 16 9 0 16 -6 16 -14z m370 -57 c0 -28 5 -49 11 -49 6 0
9 16 8 40 -2 22 1 40 6 40 10 0 8 -69 -6 -190 -5 -47 -12 -110 -14 -140 -3
-30 -9 -104 -15 -165 -6 -60 -13 -146 -16 -190 -3 -44 -9 -132 -14 -195 -6
-63 -12 -150 -16 -192 -3 -43 -10 -78 -15 -78 -5 0 -9 43 -9 95 0 57 -4 95
-10 95 -6 0 -10 42 -10 105 0 63 4 105 10 105 6 0 10 -38 10 -95 0 -61 4 -95
11 -95 7 0 9 28 5 88 -16 243 -17 315 -7 325 6 6 11 50 11 104 0 51 4 93 8 93
13 0 11 34 -2 42 -8 5 -7 8 1 8 9 0 12 27 12 98 0 54 5 110 10 125 6 16 11 42
11 58 0 18 4 28 10 24 6 -3 10 -28 10 -56z m-138 19 c-9 -9 -15 -9 -24 0 -9 9
-7 12 12 12 19 0 21 -3 12 -12z m-439 -7 c12 -2 8 -24 -10 -43 -21 -24 -108
-26 -117 -2 -10 27 -7 42 12 47 14 3 78 2 115 -2z m477 -11 c0 -5 -4 -10 -10
-10 -5 0 -10 5 -10 10 0 6 5 10 10 10 6 0 10 -4 10 -10z m-3416 -86 c18 -7 22
-39 6 -49 -6 -3 -19 -3 -30 0 -22 7 -27 40 -7 48 6 3 13 6 14 6 1 1 8 -2 17
-5z m3689 -31 c-7 -2 -19 -2 -25 0 -7 3 -2 5 12 5 14 0 19 -2 13 -5z m90 -15
c31 -16 47 -34 47 -52 0 -9 8 -16 20 -16 11 0 20 7 20 15 0 8 -4 15 -10 15 -5
0 -10 10 -10 21 0 18 3 19 15 9 8 -6 20 -8 26 -4 9 5 10 2 6 -10 -4 -10 -7
-42 -7 -72 0 -47 -2 -54 -20 -54 -11 0 -20 5 -20 10 0 18 -30 11 -53 -12 -12
-13 -24 -34 -26 -48 -1 -14 -8 -28 -13 -31 -7 -4 -6 -9 1 -13 6 -4 11 -16 11
-27 0 -10 5 -19 10 -19 6 0 10 -4 10 -10 0 -5 -9 -10 -20 -10 -15 0 -20 -7
-20 -27 -1 -27 -20 -63 -34 -63 -10 0 -7 48 4 55 6 3 10 19 10 36 0 16 4 29
10 29 6 0 6 9 0 25 -5 13 -6 26 -1 29 4 3 8 27 9 53 3 64 8 102 16 110 3 3 6
-10 6 -30 0 -20 5 -37 10 -37 6 0 10 15 10 33 0 18 5 38 11 44 8 8 4 15 -12
27 -27 18 -56 21 -61 5 -2 -6 -26 -9 -58 -7 l-55 3 50 8 c28 4 57 12 65 17 20
12 28 12 53 -2z m-455 -5 c-21 -2 -55 -2 -75 0 -21 2 -4 4 37 4 41 0 58 -2 38
-4z m125 0 c-7 -2 -19 -2 -25 0 -7 3 -2 5 12 5 14 0 19 -2 13 -5z m122 -33 c3
-5 1 -10 -4 -10 -6 0 -11 5 -11 10 0 6 2 10 4 10 3 0 8 -4 11 -10z m-645 -60
c0 -30 -1 -30 -55 -30 -40 0 -57 4 -61 15 -13 33 4 45 61 45 54 0 55 0 55 -30z
m-54 -104 c8 -8 11 -22 8 -30 -8 -22 -104 -23 -104 -2 0 19 20 31 43 28 9 -2
17 2 17 7 0 15 19 14 36 -3z m994 -6 c0 -13 -7 -20 -20 -20 -23 0 -25 5 -7 25
17 20 27 18 27 -5z m-2 -86 c-2 -61 -18 -56 -18 7 0 31 4 48 10 44 6 -3 9 -26
8 -51z m-940 -1 c-3 -26 -6 -28 -57 -31 -60 -3 -76 6 -66 37 5 18 14 21 66 21
60 0 60 0 57 -27z m782 -114 c0 -5 -7 -9 -15 -9 -15 0 -20 12 -9 23 8 8 24 -1
24 -14z m-844 -13 c16 -12 16 -15 4 -19 -8 -3 -22 -8 -30 -10 -8 -3 2 -6 23
-6 40 -1 67 -19 67 -44 0 -20 -9 -23 -81 -19 l-61 4 6 33 c5 26 3 34 -11 40
-17 6 -17 7 1 21 11 8 29 14 41 14 12 0 30 -6 41 -14z m1094 -48 c0 -5 -7 -3
-15 6 -8 8 -15 18 -15 22 0 3 7 1 15 -6 8 -7 15 -17 15 -22z m-50 -23 c0 -14
-4 -25 -10 -25 -5 0 -10 11 -10 25 0 14 5 25 10 25 6 0 10 -11 10 -25z m-153
-21 c11 -10 26 -14 45 -10 15 3 28 1 28 -4 0 -6 -9 -10 -21 -10 -11 0 -18 -4
-15 -9 3 -5 -5 -11 -19 -13 -21 -4 -25 -1 -25 18 0 15 -6 24 -16 24 -8 0 -12
5 -9 10 8 14 14 13 32 -6z m-90 -41 c-3 -10 -5 -4 -5 12 0 17 2 24 5 18 2 -7
2 -21 0 -30z m103 -45 c0 -19 -2 -20 -10 -8 -13 19 -13 30 0 30 6 0 10 -10 10
-22z m-83 -10 c-3 -8 -6 -5 -6 6 -1 11 2 17 5 13 3 -3 4 -12 1 -19z m143 -18
c0 -5 -4 -10 -10 -10 -5 0 -10 5 -10 10 0 6 5 10 10 10 6 0 10 -4 10 -10z
m-100 -16 c0 -3 -6 -12 -14 -19 -12 -12 -15 -11 -19 5 -4 15 0 20 14 20 10 0
19 -3 19 -6z m-580 -64 c0 -5 -4 -10 -10 -10 -5 0 -10 5 -10 10 0 6 5 10 10
10 6 0 10 -4 10 -10z m577 -12 c-3 -8 -6 -5 -6 6 -1 11 2 17 5 13 3 -3 4 -12
1 -19z m74 -96 c-6 -2 -11 -20 -11 -39 0 -43 -9 -38 -20 11 -7 31 -5 36 9 34
12 -2 15 4 14 27 -2 17 0 37 4 45 5 9 9 -3 11 -30 2 -26 -1 -46 -7 -48z m-54
46 c-3 -7 -5 -2 -5 12 0 14 2 19 5 13 2 -7 2 -19 0 -25z m-597 -64 c0 -24 -4
-44 -10 -44 -5 0 -10 23 -10 51 0 31 4 48 10 44 6 -3 10 -26 10 -51z m268 -18
c-1 -19 -6 -32 -10 -30 -12 8 -10 64 2 64 6 0 10 -15 8 -34z m461 -210 c7 -8
8 -17 3 -20 -6 -3 -12 3 -15 14 -6 24 -4 25 12 6z m-638 -129 c-1 -4 -1 -14
-1 -22 0 -13 -4 -13 -26 2 -24 15 -25 17 -8 24 22 9 36 7 35 -4z m307 -17 c17
-11 32 -25 32 -32 0 -7 3 -23 6 -35 6 -21 3 -23 -36 -23 -55 0 -78 24 -72 74
5 42 21 46 70 16z m142 -10 c0 -5 -5 -10 -11 -10 -5 0 -7 5 -4 10 3 6 8 10 11
10 2 0 4 -4 4 -10z m18 -55 c3 -25 2 -27 -12 -16 -19 16 -22 55 -3 49 6 -3 14
-17 15 -33z m-321 -6 c18 -18 -12 -45 -30 -27 -10 9 -11 16 -3 25 14 15 19 16
33 2z m-147 -9 c0 -5 -18 -10 -41 -10 -24 0 -38 4 -34 10 3 6 22 10 41 10 19
0 34 -4 34 -10z m-820 -80 c0 -6 28 -10 64 -10 91 0 94 -18 4 -22 -68 -3 -73
-4 -70 -24 2 -12 -4 -24 -12 -27 -11 -4 -14 5 -14 44 -1 36 3 49 14 49 8 0 14
-4 14 -10z m-680 -20 c0 -5 -7 -10 -15 -10 -8 0 -15 5 -15 10 0 6 7 10 15 10
8 0 15 -4 15 -10z m125 -20 c3 -5 -1 -10 -9 -10 -9 0 -16 -4 -16 -10 0 -5 -22
-10 -50 -10 -27 0 -50 5 -50 10 0 6 23 10 50 10 28 0 50 5 50 10 0 6 4 10 9
10 6 0 13 -4 16 -10z m-755 -20 c0 -5 -2 -10 -4 -10 -3 0 -8 5 -11 10 -3 6 -1
10 4 10 6 0 11 -4 11 -10z m590 0 c0 -5 -4 -10 -10 -10 -5 0 -10 5 -10 10 0 6
5 10 10 10 6 0 10 -4 10 -10z m-533 -36 c-3 -3 -12 -4 -19 -1 -8 3 -5 6 6 6
11 1 17 -2 13 -5z m2673 -9 c6 -8 9 -19 5 -24 -7 -13 30 -51 51 -51 14 0 14 2
0 22 -21 30 -20 41 5 56 16 10 24 11 35 1 9 -7 32 -10 64 -6 28 3 50 3 50 -1
0 -11 154 -1 161 10 3 5 21 8 40 5 30 -4 32 -5 12 -12 -13 -4 -23 -14 -23 -21
0 -18 -48 -68 -75 -78 -11 -4 -33 -10 -50 -13 -37 -6 -42 -10 -27 -25 18 -18
15 -24 -19 -49 l-31 -21 -33 32 c-18 18 -31 39 -28 46 3 9 -2 14 -16 14 -18 0
-21 -5 -17 -27 2 -16 5 -33 5 -40 1 -6 17 -17 36 -23 19 -6 35 -17 35 -23 0
-14 -166 -177 -180 -177 -6 0 -10 -7 -10 -15 0 -8 -6 -15 -13 -15 -7 0 -44
-29 -82 -65 -38 -36 -72 -65 -76 -65 -3 0 -14 9 -24 20 -22 24 -98 29 -89 6 7
-18 -31 -27 -52 -11 -9 6 -14 17 -10 23 11 18 -30 15 -48 -3 -18 -18 -57 -20
-74 -3 -7 7 -38 15 -70 19 -31 4 -79 13 -105 19 -33 8 -56 9 -76 2 -21 -8 -40
-7 -68 3 -21 8 -55 14 -75 15 -21 0 -38 4 -38 9 0 5 -12 9 -27 8 -66 -2 -114
4 -108 13 4 6 -26 10 -84 10 -49 0 -93 5 -96 10 -7 12 -85 14 -85 3 1 -22 59
-47 115 -51 33 -2 64 -8 70 -13 5 -5 19 -9 31 -9 11 0 38 -11 58 -25 20 -14
43 -25 51 -25 22 0 27 -17 10 -34 -12 -12 -22 -13 -48 -4 -17 6 -36 14 -42 18
-8 6 -185 40 -207 40 -3 0 -15 8 -26 19 -15 12 -22 30 -22 55 0 31 -3 36 -22
36 -19 0 -20 2 -8 10 12 8 11 10 -7 10 -13 0 -24 5 -24 10 -4 34 -20 70 -30
70 -5 0 -9 9 -9 20 0 11 -7 20 -15 20 -8 0 -15 3 -16 8 -4 48 -3 92 4 92 4 0
7 14 7 31 0 17 7 37 15 45 19 19 19 29 -1 49 -13 12 -14 19 -4 30 11 13 67 15
371 15 228 0 360 4 364 10 4 6 130 10 344 10 284 0 340 -2 351 -15z m317 9
c-3 -3 -12 -4 -19 -1 -8 3 -5 6 6 6 11 1 17 -2 13 -5z m-1866 -219 c45 -29 47
-35 18 -53 -18 -11 -24 -11 -40 4 -10 9 -19 28 -19 41 0 12 -4 23 -10 23 -5 0
-10 10 -10 23 1 20 2 20 11 4 6 -10 28 -29 50 -42z m-81 -101 c0 -7 5 -14 11
-14 6 0 4 -7 -5 -15 -18 -18 -30 -20 -20 -2 6 9 4 9 -8 -1 -13 -10 -17 -10
-21 0 -4 10 -8 10 -17 -2 -9 -11 -13 -12 -17 -2 -2 6 -17 12 -33 12 -16 0 -30
-6 -33 -12 -2 -7 -7 -11 -10 -8 -3 3 3 17 15 30 17 21 30 25 79 27 46 1 59 -1
59 -13z m68 -14 c18 -16 36 -30 42 -30 13 0 13 -11 0 -30 -6 -10 -10 -11 -10
-2 0 6 -7 12 -15 12 -8 0 -15 4 -15 9 0 5 -9 11 -20 14 -11 3 -20 12 -20 21 0
9 -5 16 -11 16 -5 0 -7 5 -4 10 10 16 20 12 53 -20z m-235 -197 c-7 -2 -19 -2
-25 0 -7 3 -2 5 12 5 14 0 19 -2 13 -5z m-1757 -71 c-12 -12 -18 8 -10 35 l8
28 4 -28 c2 -16 1 -31 -2 -35z m2727 11 c15 -7 27 -16 27 -19 0 -5 -11 -3
-102 11 -24 4 -38 11 -38 21 0 11 9 13 43 8 23 -4 54 -13 70 -21z m562 7 c3
-5 -1 -10 -10 -10 -9 0 -13 5 -10 10 3 6 8 10 10 10 2 0 7 -4 10 -10z m75 -4
c0 -2 -7 -6 -15 -10 -8 -3 -15 -1 -15 4 0 6 7 10 15 10 8 0 15 -2 15 -4z
m-3460 -31 c0 -8 -7 -15 -15 -15 -8 0 -15 7 -15 15 0 8 7 15 15 15 8 0 15 -7
15 -15z m70 -45 c0 -5 -2 -10 -4 -10 -3 0 -8 5 -11 10 -3 6 -1 10 4 10 6 0 11
-4 11 -10z"/>
<path d="M3100 4685 c0 -48 3 -56 18 -53 13 3 17 14 17 53 0 39 -4 50 -17 53
-15 3 -18 -5 -18 -53z"/>
<path d="M3100 4462 c0 -38 3 -72 7 -75 15 -16 33 18 33 63 0 58 -7 80 -26 80
-11 0 -14 -17 -14 -68z"/>
<path d="M3497 4723 c-11 -40 -6 -93 8 -93 17 0 28 36 23 76 -4 32 -24 43 -31
17z"/>
<path d="M2017 4733 c-4 -3 -7 -33 -7 -65 0 -51 2 -58 20 -58 18 0 20 7 20 65
0 48 -4 65 -13 65 -8 0 -17 -3 -20 -7z"/>
<path d="M2455 3760 c-3 -5 1 -10 9 -10 9 0 16 -4 16 -10 0 -5 5 -10 10 -10 6
0 10 9 10 20 0 21 -33 29 -45 10z"/>
<path d="M2440 3660 c0 -5 5 -10 10 -10 6 0 10 5 10 10 0 6 -4 10 -10 10 -5 0
-10 -4 -10 -10z"/>
<path d="M773 3551 c-65 -6 -83 -15 -66 -32 7 -7 14 -5 23 6 8 10 29 15 61 15
27 0 49 5 49 10 0 6 -1 9 -2 8 -2 0 -31 -4 -65 -7z"/>
<path d="M1070 3550 c-28 -6 -21 -7 35 -8 47 0 64 2 50 8 -23 10 -37 10 -85 0z"/>
<path d="M550 3515 c0 -10 10 -15 30 -15 20 0 30 5 30 15 0 10 -10 15 -30 15
-20 0 -30 -5 -30 -15z"/>
<path d="M844 3474 c-5 -2 -9 -19 -8 -37 1 -17 -2 -38 -8 -44 -7 -9 -7 -13 1
-13 6 0 11 5 11 10 0 6 5 10 10 10 6 0 10 -9 10 -20 0 -11 -4 -20 -10 -20 -12
0 -14 -77 -2 -84 4 -2 9 -19 10 -38 2 -18 7 -34 12 -36 6 -2 10 -10 10 -18 0
-20 36 3 38 25 5 45 0 116 -9 119 -5 2 -9 17 -9 33 0 16 -4 29 -9 29 -6 0 -11
19 -13 42 -3 40 -12 51 -34 42z"/>
<path d="M1020 3461 c0 -12 6 -21 15 -21 8 0 15 4 15 9 0 5 -7 14 -15 21 -13
10 -15 9 -15 -9z"/>
<path d="M606 3451 c-4 -5 -2 -36 4 -68 6 -32 15 -81 19 -109 5 -29 12 -61 15
-72 8 -24 14 -51 26 -107 4 -22 13 -41 19 -43 6 -2 18 -10 25 -18 8 -8 21 -14
28 -15 7 0 2 -4 -10 -10 -13 -5 -29 -6 -35 -3 -7 3 -1 -4 13 -16 14 -12 20
-19 14 -16 -15 7 -24 -51 -13 -81 4 -12 11 -43 14 -70 3 -26 10 -77 16 -113 5
-36 12 -83 15 -105 3 -22 10 -44 15 -50 5 -5 9 -19 9 -32 0 -13 5 -23 10 -23
6 0 10 14 10 30 0 17 -4 30 -10 30 -5 0 -10 17 -10 38 0 49 25 62 116 62 76 0
78 -3 89 -115 4 -39 9 -78 12 -88 3 -13 -4 -21 -26 -30 -17 -6 -31 -15 -31
-19 0 -4 -4 -8 -10 -8 -5 0 -10 16 -10 35 0 33 2 35 25 29 14 -3 25 -2 26 2 0
5 2 19 5 32 3 15 -1 22 -12 22 -11 0 -13 -6 -9 -20 4 -11 2 -20 -4 -20 -6 0
-11 14 -11 31 0 20 -4 29 -12 26 -7 -2 -12 -16 -11 -31 1 -14 -2 -26 -8 -26
-5 0 -9 14 -9 30 0 24 -4 30 -21 30 -19 0 -20 -4 -15 -32 4 -18 9 -60 12 -93
5 -58 18 -120 35 -160 4 -11 10 -49 12 -84 3 -43 10 -69 21 -76 12 -9 13 -14
3 -25 -9 -10 -9 -13 1 -17 6 -3 12 -13 12 -23 0 -10 7 -20 15 -24 12 -4 15 3
15 29 0 31 3 35 25 35 14 0 25 -4 25 -10 0 -12 22 -9 33 5 6 6 10 6 14 -2 8
-20 21 -15 25 10 2 17 8 21 27 19 13 -2 27 2 32 9 4 8 11 10 16 6 4 -5 1 -12
-6 -16 -9 -6 -11 -18 -7 -35 5 -20 12 -26 35 -26 23 0 28 -4 25 -17 -3 -12 5
-24 26 -35 18 -10 30 -25 30 -38 0 -11 5 -20 10 -20 6 0 10 -18 10 -41 0 -24
4 -38 10 -34 5 3 10 15 10 25 0 25 43 54 69 45 11 -3 23 -15 26 -26 4 -10 11
-19 17 -19 6 0 -1 -11 -16 -25 -29 -27 -65 -32 -84 -13 -9 9 -12 8 -12 -6 0
-45 64 -61 102 -26 18 16 36 20 95 20 56 0 73 3 73 14 0 8 -12 19 -27 24 -26
10 -26 10 -5 11 15 1 26 10 33 28 8 21 12 24 19 13 7 -12 12 -11 28 8 11 12
27 22 36 22 9 0 16 7 16 16 0 13 -7 15 -36 10 -49 -10 -84 14 -84 55 l0 31
-47 -6 c-27 -3 -69 -8 -95 -12 -32 -4 -48 -2 -48 5 0 18 -35 12 -50 -9 -8 -11
-22 -20 -32 -20 -10 0 -18 -4 -18 -10 0 -14 -37 -13 -42 2 -7 19 4 68 14 68 6
0 8 -9 5 -20 -8 -32 20 -24 35 10 13 29 28 40 28 20 0 -5 18 -10 39 -10 22 0
41 -5 43 -12 4 -10 10 -10 29 -1 l24 12 -27 0 c-48 2 -42 21 6 21 25 0 46 4
46 10 0 6 -47 10 -120 9 -67 0 -120 -4 -120 -10 0 -5 -4 -9 -10 -9 -5 0 -10
11 -10 24 0 27 -29 44 -41 24 -6 -9 -13 -7 -27 10 -24 28 -32 28 -33 0 -1 -20
-3 -18 -15 10 -8 17 -21 32 -29 32 -15 0 -55 -38 -55 -52 0 -4 -11 -8 -25 -8
-19 0 -25 5 -23 18 2 9 8 20 13 24 6 5 6 8 -1 8 -6 0 -21 8 -32 19 -17 14 -22
30 -22 68 0 49 0 50 30 45 27 -4 30 -1 30 22 0 32 17 34 24 4 2 -13 4 1 3 30
l-2 52 43 0 42 0 0 80 0 80 -55 0 c-49 0 -55 2 -55 20 0 15 9 22 31 27 39 8
51 38 40 100 -5 26 -7 51 -5 55 3 5 -5 12 -18 17 -17 7 -19 10 -5 10 23 1 22
21 -2 21 -23 0 -32 -19 -20 -42 5 -9 6 -37 3 -62 -8 -56 -15 -58 -141 -53
-112 4 -123 12 -123 94 0 47 4 61 19 73 11 7 18 17 15 22 -3 4 4 8 16 8 13 0
19 4 14 12 -5 7 -3 8 5 4 7 -5 10 -14 7 -22 -7 -19 -3 -18 24 6 23 20 23 20 2
20 -12 0 -22 5 -22 10 0 6 18 10 41 10 24 0 38 4 34 10 -3 6 -1 10 4 10 6 0
11 5 11 10 0 7 -7 7 -20 0 -11 -6 -24 -8 -29 -5 -5 3 -12 -1 -14 -7 -3 -8 -6
-6 -6 5 -1 13 -10 17 -47 17 -41 0 -45 2 -39 20 4 11 2 20 -4 20 -6 0 -11 13
-11 28 0 31 30 52 74 52 13 0 34 9 47 21 l24 20 -22 -6 c-14 -4 -23 -2 -23 4
0 14 -83 14 -97 0 -19 -19 -58 -6 -61 20 -3 19 0 23 16 19 11 -3 26 -2 33 3
10 6 5 9 -16 10 -16 1 -34 1 -39 0 -5 -1 -6 14 -3 34 4 25 0 53 -14 87 -11 28
-19 58 -18 67 7 46 -39 129 -55 102z m468 -956 c-4 -8 -1 -15 6 -15 6 0 8 -4
5 -10 -10 -17 -35 -11 -35 8 0 20 8 32 21 32 5 0 6 -7 3 -15z m-141 -125 c3
-11 1 -23 -4 -26 -5 -3 -9 6 -9 20 0 31 6 34 13 6z m92 -270 c3 -5 -3 -10 -15
-10 -12 0 -18 5 -15 10 3 6 10 10 15 10 5 0 12 -4 15 -10z"/>
<path d="M1150 3430 c0 -5 5 -10 11 -10 5 0 7 5 4 10 -3 6 -8 10 -11 10 -2 0
-4 -4 -4 -10z"/>
<path d="M1130 3390 c0 -5 5 -10 11 -10 5 0 7 5 4 10 -3 6 -8 10 -11 10 -2 0
-4 -4 -4 -10z"/>
<path d="M2480 3394 c0 -14 31 -34 51 -34 l23 0 -22 20 c-20 19 -52 27 -52 14z"/>
<path d="M1090 3350 c0 -5 5 -10 10 -10 6 0 10 5 10 10 0 6 -4 10 -10 10 -5 0
-10 -4 -10 -10z"/>
<path d="M1040 3320 c0 -11 2 -20 4 -20 2 0 6 9 9 20 3 11 1 20 -4 20 -5 0 -9
-9 -9 -20z"/>
<path d="M1095 3310 c-3 -5 -1 -10 4 -10 6 0 11 5 11 10 0 6 -2 10 -4 10 -3 0
-8 -4 -11 -10z"/>
<path d="M1073 3283 c-22 -8 -15 -43 7 -43 11 0 20 2 20 4 0 2 3 11 6 19 6 16
-13 27 -33 20z"/>
<path d="M2055 3210 c3 -5 12 -7 20 -3 21 7 19 13 -6 13 -11 0 -18 -4 -14 -10z"/>
<path d="M2103 3205 c-16 -17 -18 -69 -2 -60 6 4 8 13 5 21 -3 7 1 20 9 28 8
8 15 17 15 20 0 11 -15 6 -27 -9z"/>
<path d="M1064 3185 c-8 -20 4 -65 16 -65 6 0 10 7 10 15 0 8 -5 15 -12 15 -9
0 -9 3 0 12 10 10 15 10 22 -2 8 -13 10 -12 10 3 0 11 -8 17 -22 17 -19 0 -20
2 -8 10 10 7 11 10 2 10 -7 0 -15 -7 -18 -15z"/>
<path d="M1170 3170 c0 -5 5 -10 10 -10 6 0 10 5 10 10 0 6 -4 10 -10 10 -5 0
-10 -4 -10 -10z"/>
<path d="M936 3144 l-26 -29 37 -5 c39 -6 63 3 63 24 0 6 -4 5 -9 -3 -7 -11
-12 -8 -23 14 l-15 28 -27 -29z"/>
<path d="M1170 3140 c0 -5 5 -10 10 -10 6 0 10 5 10 10 0 6 -4 10 -10 10 -5 0
-10 -4 -10 -10z"/>
<path d="M1134 3119 c-3 -6 -1 -16 5 -22 8 -8 11 -5 11 11 0 24 -5 28 -16 11z"/>
<path d="M901 3074 c0 -11 3 -14 6 -6 3 7 2 16 -1 19 -3 4 -6 -2 -5 -13z"/>
<path d="M2835 3080 c-8 -14 -3 -90 7 -90 4 0 8 23 8 50 0 50 -3 59 -15 40z"/>
<path d="M978 3060 c-1 -5 -14 -11 -27 -13 -35 -5 -37 -22 -7 -52 24 -24 74
-36 61 -15 -3 6 -2 10 2 10 5 0 9 18 10 40 2 33 -1 40 -17 40 -10 0 -20 -4
-22 -10z"/>
<path d="M1006 2949 c3 -6 -3 -18 -15 -28 -11 -10 -18 -21 -14 -25 10 -9 43
-7 43 3 0 5 7 17 16 26 19 18 16 24 -15 30 -13 2 -19 0 -15 -6z"/>
<path d="M1085 2920 c-3 -5 1 -10 9 -10 9 0 16 5 16 10 0 6 -4 10 -9 10 -6 0
-13 -4 -16 -10z"/>
<path d="M1195 2880 c-3 -5 -4 -14 0 -20 8 -13 35 -1 35 16 0 16 -26 19 -35 4z"/>
<path d="M1020 2856 c0 -9 7 -12 20 -9 11 3 20 9 20 14 0 5 -9 9 -20 9 -11 0
-20 -6 -20 -14z"/>
<path d="M1072 2826 c2 -16 9 -31 17 -34 10 -3 11 2 6 19 -12 39 -27 48 -23
15z"/>
<path d="M2790 2836 c0 -8 5 -18 10 -21 6 -3 10 3 10 14 0 12 -4 21 -10 21 -5
0 -10 -6 -10 -14z"/>
<path d="M2768 2766 c-6 -29 8 -56 27 -56 9 0 15 10 15 25 0 14 5 25 10 25 6
0 10 7 10 15 0 10 -10 15 -29 15 -22 0 -30 -5 -33 -24z"/>
<path d="M1123 2755 c-8 -23 0 -25 21 -4 18 17 18 19 2 19 -9 0 -19 -7 -23
-15z"/>
<path d="M1572 2738 c-13 -13 -16 -38 -4 -38 4 0 18 7 30 16 21 14 22 14 22
-5 0 -12 6 -22 13 -22 6 -1 -6 -5 -28 -9 -45 -9 -65 -4 -65 16 0 8 -4 14 -10
14 -5 0 -10 -7 -10 -15 0 -8 -8 -15 -18 -15 -10 0 -22 -4 -27 -9 -6 -6 -62
-11 -125 -12 -63 -1 -121 -6 -127 -12 -7 -5 -13 -27 -13 -48 0 -29 4 -39 16
-39 9 0 25 -10 35 -21 11 -13 26 -20 37 -17 15 4 18 0 15 -21 -2 -14 0 -20 3
-13 3 6 12 12 20 12 9 0 14 11 14 30 0 24 4 30 21 30 21 0 21 0 2 -47 -3 -9 4
-13 20 -13 26 0 40 20 31 45 -5 12 2 15 31 15 32 0 36 -3 29 -17 -4 -10 -8
-31 -8 -48 -1 -41 25 -43 47 -4 13 23 22 30 38 26 12 -3 22 0 26 9 9 25 80 18
108 -11 14 -13 25 -31 25 -40 0 -10 7 -15 18 -13 26 5 29 65 3 87 -11 10 -18
21 -14 25 10 10 161 7 168 -4 3 -5 1 -10 -4 -10 -6 0 -11 -4 -11 -10 0 -5 11
-10 24 -10 30 0 36 -15 43 -117 4 -59 3 -83 -6 -83 -6 0 -11 -9 -11 -20 0 -11
4 -20 9 -20 5 0 15 -16 21 -35 6 -19 15 -35 20 -35 11 0 21 -30 14 -41 -3 -6
-11 -6 -19 1 -21 18 -66 -30 -58 -61 4 -13 8 -18 11 -11 3 9 43 12 148 12 137
0 144 -1 144 -20 0 -11 -7 -20 -15 -20 -8 0 -15 5 -15 10 0 6 -13 10 -30 10
-27 0 -30 -3 -30 -30 0 -30 2 -31 40 -28 22 1 40 6 40 12 0 16 17 -6 23 -29 4
-15 5 -13 6 8 1 33 31 38 32 5 0 -13 3 -17 6 -10 8 19 23 14 23 -8 0 -24 13
-25 46 -3 18 11 22 18 13 24 -24 15 17 39 66 39 28 0 44 4 40 10 -3 6 -31 10
-61 10 -30 0 -54 5 -54 10 0 6 18 10 39 10 41 0 62 23 41 44 -5 5 -10 18 -10
28 0 20 -43 25 -70 8 -9 -5 -19 -5 -26 1 -9 7 -15 5 -22 -7 -6 -11 -11 -13
-16 -5 -11 17 -34 13 -56 -9 -11 -11 -20 -15 -20 -10 0 6 -10 10 -22 10 -23 0
-22 1 2 13 19 10 24 19 22 40 -4 28 17 87 30 87 13 0 9 95 -3 107 -7 7 -12 42
-13 80 l-1 68 -36 -3 c-25 -2 -38 1 -42 12 -4 9 -13 12 -28 9 -15 -4 -20 -3
-15 5 4 7 2 12 -3 12 -6 0 -11 -5 -11 -11 0 -5 -4 -7 -10 -4 -22 14 -8 -17 20
-43 17 -16 30 -32 30 -36 0 -13 -32 -5 -52 14 -17 16 -36 20 -88 20 -37 0 -69
3 -73 6 -10 10 4 34 21 34 13 0 11 4 -6 16 -17 12 -20 19 -12 33 12 24 4 31
-40 31 -20 0 -41 5 -47 11 -7 7 -13 7 -17 0 -9 -14 -36 -2 -36 15 0 20 69 19
76 -1 4 -8 10 -15 15 -15 14 0 11 30 -5 46 -17 17 -50 19 -40 3 5 -8 -6 -10
-34 -7 -39 3 -40 3 -35 -23 5 -25 2 -27 -35 -31 -53 -5 -62 -1 -62 25 0 14
-10 27 -27 35 -34 15 -46 15 -61 0z m558 -578 c0 -5 -4 -10 -10 -10 -5 0 -10
5 -10 10 0 6 5 10 10 10 6 0 10 -4 10 -10z"/>
<path d="M1915 2740 c4 -6 11 -8 16 -5 14 9 11 15 -7 15 -8 0 -12 -5 -9 -10z"/>
<path d="M1348 2723 c7 -3 16 -2 19 1 4 3 -2 6 -13 5 -11 0 -14 -3 -6 -6z"/>
<path d="M2602 2702 c-25 -31 -27 -48 -9 -66 17 -18 32 -1 40 47 7 46 -2 53
-31 19z"/>
<path d="M2460 2701 c0 -11 5 -23 10 -26 6 -3 10 -11 10 -16 0 -6 -4 -7 -10
-4 -5 3 -10 0 -10 -7 0 -7 9 -19 20 -26 19 -12 20 -10 20 43 0 48 -2 55 -20
55 -13 0 -20 -7 -20 -19z"/>
<path d="M1485 2700 c4 -6 11 -8 16 -5 14 9 11 15 -7 15 -8 0 -12 -5 -9 -10z"/>
<path d="M2334 2624 c3 -9 6 -22 6 -30 0 -23 34 -16 46 11 14 29 9 35 -29 35
-22 0 -28 -4 -23 -16z"/>
<path d="M2424 2592 c-18 -15 -35 -38 -39 -51 -5 -16 -10 -20 -15 -11 -5 8
-14 5 -32 -13 -27 -27 -40 -61 -31 -83 6 -17 40 -18 46 -1 3 7 6 4 6 -6 2 -38
53 -63 65 -32 6 16 36 21 36 6 0 -5 9 -7 19 -4 16 4 19 15 20 65 0 51 -2 59
-16 54 -12 -5 -13 -3 -5 6 6 7 10 15 11 18 0 3 3 13 6 22 4 10 5 23 2 30 -4 8
-8 5 -12 -9 -4 -13 -11 -23 -16 -23 -14 0 -11 48 4 53 8 4 7 6 -3 6 -8 1 -29
-11 -46 -27z m26 -96 c0 -3 -4 -8 -10 -11 -5 -3 -10 -1 -10 4 0 6 5 11 10 11
6 0 10 -2 10 -4z m-53 -58 c-3 -8 -6 -5 -6 6 -1 11 2 17 5 13 3 -3 4 -12 1
-19z m83 -4 c0 -8 -4 -14 -10 -14 -5 0 -10 9 -10 21 0 11 5 17 10 14 6 -3 10
-13 10 -21z"/>
<path d="M2243 2560 c1 -12 8 -20 19 -20 22 0 23 7 4 26 -20 19 -25 18 -23 -6z"/>
<path d="M2951 2473 c-1 -29 3 -53 9 -53 12 0 12 44 0 80 -6 20 -8 14 -9 -27z"/>
<path d="M1772 2460 c-7 -11 -20 -20 -31 -20 -10 0 -28 -9 -41 -20 -13 -11
-31 -20 -42 -20 -10 0 -18 -5 -18 -10 0 -13 76 -10 108 4 17 7 26 7 31 -3 6
-9 23 -10 59 -5 42 5 52 10 52 26 0 24 -26 52 -35 38 -11 -18 -51 -11 -61 10
l-9 20 -13 -20z"/>
<path d="M1291 2434 c-1 -36 19 -57 43 -48 9 3 28 -1 42 -11 24 -16 26 -16 39
2 12 16 11 19 -6 25 -11 4 -22 14 -25 23 -7 16 -54 21 -54 5 0 -18 -17 -10
-28 13 -10 21 -11 20 -11 -9z"/>
<path d="M1526 2444 c-11 -28 -7 -33 29 -40 47 -9 53 -1 22 30 -30 30 -42 32
-51 10z"/>
<path d="M1058 2363 c-3 -4 -4 -26 -4 -48 1 -29 5 -40 16 -40 11 0 15 12 15
44 0 40 -16 65 -27 44z"/>
<path d="M2340 2349 c-17 -31 -22 -101 -7 -96 6 2 14 12 16 23 2 10 9 23 17
29 7 5 16 22 20 38 5 23 3 27 -15 27 -11 0 -25 -9 -31 -21z"/>
<path d="M765 2330 c-3 -5 -1 -10 4 -10 6 0 11 5 11 10 0 6 -2 10 -4 10 -3 0
-8 -4 -11 -10z"/>
<path d="M2950 2230 c0 -53 4 -90 10 -90 6 0 10 37 10 90 0 53 -4 90 -10 90
-6 0 -10 -37 -10 -90z"/>
<path d="M1897 2273 c-3 -16 -1 -32 4 -37 5 -6 9 4 9 27 0 44 -6 48 -13 10z"/>
<path d="M2380 2275 c0 -29 6 -31 26 -11 20 20 17 36 -6 36 -15 0 -20 -7 -20
-25z"/>
<path d="M1378 2233 c29 -2 74 -2 100 0 26 2 2 3 -53 3 -55 0 -76 -1 -47 -3z"/>
<path d="M2580 2180 c0 -5 5 -10 11 -10 5 0 7 5 4 10 -3 6 -8 10 -11 10 -2 0
-4 -4 -4 -10z"/>
<path d="M2563 2133 c-4 -10 -11 -21 -17 -25 -6 -4 -7 -10 -3 -15 5 -4 12 -1
18 7 8 13 10 13 20 0 8 -12 9 -10 4 8 -4 13 -2 22 4 22 6 0 11 5 11 10 0 17
-30 11 -37 -7z"/>
<path d="M2715 2119 c-62 -15 -67 -29 -9 -29 47 1 91 20 77 33 -8 8 -16 8 -68
-4z"/>
<path d="M1665 2100 c-4 -6 15 -10 50 -10 35 0 54 4 50 10 -3 6 -26 10 -50 10
-24 0 -47 -4 -50 -10z"/>
<path d="M1995 2100 c3 -5 -3 -10 -13 -10 -19 0 -20 -6 -16 -82 3 -46 6 -102
8 -125 3 -33 0 -43 -11 -43 -28 0 -6 -25 28 -31 41 -9 51 -3 18 10 -13 5 -22
10 -19 11 25 7 40 7 40 -1 0 -5 5 -9 10 -9 6 0 10 15 10 34 0 19 5 38 10 41 6
3 10 40 10 81 0 43 4 74 10 74 6 0 10 14 10 30 0 29 -1 30 -51 30 -31 0 -48
-4 -44 -10z m41 -44 c9 -9 14 -35 14 -68 -1 -49 -2 -51 -15 -34 -8 11 -13 28
-9 38 3 10 1 18 -5 18 -6 0 -11 14 -11 30 0 34 5 37 26 16z"/>
<path d="M2620 2100 c0 -5 5 -10 10 -10 6 0 10 5 10 10 0 6 -4 10 -10 10 -5 0
-10 -4 -10 -10z"/>
<path d="M2950 2041 c0 -41 4 -71 10 -71 6 0 10 28 10 64 0 36 -4 68 -10 71
-6 4 -10 -20 -10 -64z"/>
<path d="M1600 2080 c0 -5 5 -10 10 -10 6 0 10 5 10 10 0 6 -4 10 -10 10 -5 0
-10 -4 -10 -10z"/>
<path d="M2500 2080 c0 -5 5 -10 11 -10 5 0 7 5 4 10 -3 6 -8 10 -11 10 -2 0
-4 -4 -4 -10z"/>
<path d="M610 2060 c0 -5 7 -10 15 -10 8 0 15 5 15 10 0 6 -7 10 -15 10 -8 0
-15 -4 -15 -10z"/>
<path d="M1130 2060 c0 -5 5 -10 10 -10 6 0 10 5 10 10 0 6 -4 10 -10 10 -5 0
-10 -4 -10 -10z"/>
<path d="M1620 2020 c0 -5 5 -10 10 -10 6 0 10 5 10 10 0 6 -4 10 -10 10 -5 0
-10 -4 -10 -10z"/>
<path d="M1665 2020 c3 -5 8 -10 11 -10 2 0 4 5 4 10 0 6 -5 10 -11 10 -5 0
-7 -4 -4 -10z"/>
<path d="M977 1920 c-4 -16 -4 -37 0 -45 5 -14 8 -14 24 1 22 20 24 45 7 62
-18 18 -25 15 -31 -18z"/>
<path d="M2230 1912 c0 -19 34 -62 50 -62 19 0 22 41 4 61 -22 24 -54 25 -54
1z"/>
<path d="M2950 1895 c0 -19 5 -35 10 -35 6 0 10 16 10 35 0 19 -4 35 -10 35
-5 0 -10 -16 -10 -35z"/>
<path d="M645 1910 c-3 -5 1 -10 10 -10 9 0 13 5 10 10 -3 6 -8 10 -10 10 -2
0 -7 -4 -10 -10z"/>
<path d="M1740 1901 c0 -13 -8 -22 -22 -25 -13 -3 -35 -7 -50 -11 -26 -5 -41
-35 -18 -35 6 0 10 -7 10 -15 0 -18 -36 -20 -44 -2 -5 10 -7 10 -12 0 -3 -7
-14 -13 -25 -13 -10 0 -19 -4 -19 -10 0 -5 -7 -10 -15 -10 -8 0 -15 -4 -15
-10 0 -5 -6 -10 -13 -10 -7 0 -19 -9 -27 -20 -8 -11 -20 -20 -27 -20 -7 0 -13
-9 -13 -20 0 -11 -4 -20 -10 -20 -5 0 -10 -7 -10 -16 0 -9 -9 -18 -20 -21 -11
-3 -17 -9 -14 -14 3 -5 0 -9 -6 -9 -12 0 -60 -45 -60 -56 0 -3 11 -4 23 -2 22
4 24 1 23 -31 -1 -28 3 -36 19 -39 16 -4 17 -2 7 11 -10 12 -7 20 20 46 21 21
35 28 42 21 19 -19 44 -12 39 13 -4 19 0 22 28 21 17 0 37 -7 43 -15 6 -8 19
-13 29 -11 14 3 17 -4 17 -38 0 -35 4 -42 27 -51 15 -5 38 -8 50 -4 18 4 23
12 23 38 0 27 4 33 23 34 59 2 105 9 101 15 -5 8 38 4 53 -5 13 -8 25 17 17
38 -7 17 21 21 31 5 3 -5 1 -10 -5 -10 -6 0 -8 -4 -5 -10 3 -5 17 -10 31 -10
13 0 24 -5 24 -10 0 -6 -10 -9 -22 -7 -13 2 -17 2 -10 0 7 -3 10 -13 6 -27 -4
-19 1 -27 31 -45 43 -25 57 -26 101 -5 27 13 34 22 34 45 0 26 -3 29 -35 29
-37 0 -85 18 -85 32 0 4 5 8 10 8 16 0 12 19 -10 42 -11 12 -20 16 -20 10 0
-7 -16 -12 -42 -12 -23 0 -39 3 -35 6 3 4 -1 13 -9 22 -11 11 -18 12 -27 3 -8
-8 -7 -11 6 -11 9 0 17 -4 17 -10 0 -5 -25 -10 -55 -10 -30 0 -55 -4 -55 -10
0 -5 -13 -10 -30 -10 -16 0 -30 4 -30 9 0 19 -46 6 -67 -19 -18 -19 -23 -21
-23 -9 0 9 -9 19 -20 22 -27 7 -26 40 2 72 21 25 58 34 58 15 0 -5 9 -10 20
-10 13 0 20 -7 20 -20 0 -11 7 -20 15 -20 8 0 15 5 15 10 0 6 5 10 11 10 18 0
46 33 31 38 -7 2 -12 24 -12 58 0 30 -4 54 -10 54 -5 0 -10 18 -10 39 0 22 -4
43 -10 46 -5 3 -10 -3 -10 -14z m-240 -263 c0 -23 -16 -57 -22 -48 -27 42 -28
50 -7 50 11 0 17 5 14 10 -3 6 -1 10 4 10 6 0 11 -10 11 -22z m486 -35 c-10
-10 -19 5 -10 18 6 11 8 11 12 0 2 -7 1 -15 -2 -18z m-549 -15 c-3 -7 -5 -2
-5 12 0 14 2 19 5 13 2 -7 2 -19 0 -25z"/>
<path d="M2540 1870 c0 -5 5 -10 11 -10 5 0 7 5 4 10 -3 6 -8 10 -11 10 -2 0
-4 -4 -4 -10z"/>
<path d="M2090 1836 c0 -19 4 -22 25 -18 27 5 35 22 10 22 -8 0 -15 5 -15 10
0 6 -4 10 -10 10 -5 0 -10 -11 -10 -24z"/>
<path d="M2150 1819 c0 -13 38 -49 52 -49 4 0 8 -6 8 -14 0 -8 6 -16 13 -19
10 -3 10 -11 0 -39 -16 -42 -18 -71 -4 -48 6 8 7 18 5 22 -3 4 4 8 15 8 11 0
23 5 26 10 3 6 26 10 50 10 24 0 47 -4 50 -10 3 -5 13 -10 21 -10 8 0 12 5 9
10 -4 6 5 10 20 10 32 0 105 -22 105 -32 0 -5 6 -8 14 -8 9 0 12 7 9 20 -3 11
-9 20 -14 20 -5 0 -9 8 -9 19 0 10 -9 21 -20 24 -13 3 -20 14 -20 30 0 21 -6
25 -37 30 -21 3 -53 9 -72 13 l-34 7 6 -41 5 -42 -41 0 c-41 0 -97 33 -97 57
0 5 -11 15 -25 21 -32 15 -35 15 -35 1z m230 -69 c0 -5 -4 -10 -10 -10 -5 0
-10 5 -10 10 0 6 5 10 10 10 6 0 10 -4 10 -10z"/>
<path d="M1290 1801 c0 -12 5 -21 10 -21 6 0 10 6 10 14 0 8 -4 18 -10 21 -5
3 -10 -3 -10 -14z"/>
<path d="M2590 1810 c-13 -8 -12 -10 3 -10 9 0 17 5 17 10 0 12 -1 12 -20 0z"/>
<path d="M880 1763 c0 -19 7 -42 16 -51 15 -15 16 -14 10 6 -5 16 -3 22 7 22
9 0 14 10 13 28 -1 21 -6 27 -23 28 -20 1 -23 -4 -23 -33z"/>
<path d="M1961 1794 c-2 -21 -39 -54 -60 -54 -14 0 -21 -6 -21 -20 0 -29 35
-26 66 5 18 18 24 33 21 53 -2 15 -5 22 -6 16z"/>
<path d="M2500 1771 c0 -12 5 -21 10 -21 6 0 10 6 10 14 0 8 -4 18 -10 21 -5
3 -10 -3 -10 -14z"/>
<path d="M2010 1770 c0 -5 9 -10 20 -10 11 0 20 5 20 10 0 6 -9 10 -20 10 -11
0 -20 -4 -20 -10z"/>
<path d="M676 1755 c4 -8 10 -15 15 -15 5 0 9 7 9 15 0 8 -7 15 -15 15 -9 0
-12 -6 -9 -15z"/>
<path d="M2530 1751 c0 -16 38 -56 46 -48 10 10 -16 57 -33 57 -7 0 -13 -4
-13 -9z"/>
<path d="M2887 1740 c-16 -19 -16 -20 3 -20 13 0 20 7 20 20 0 11 -1 20 -3 20
-1 0 -10 -9 -20 -20z"/>
<path d="M1270 1736 c0 -9 5 -16 10 -16 6 0 10 4 10 9 0 6 -4 13 -10 16 -5 3
-10 -1 -10 -9z"/>
<path d="M2612 1684 c-6 -7 -12 -21 -11 -31 0 -15 2 -14 11 4 6 12 18 24 27
25 14 3 14 4 1 10 -8 3 -21 -1 -28 -8z"/>
<path d="M1135 1670 c3 -5 8 -10 11 -10 2 0 4 5 4 10 0 6 -5 10 -11 10 -5 0
-7 -4 -4 -10z"/>
<path d="M2664 1669 c-3 -5 2 -9 11 -9 8 0 29 -13 46 -30 18 -16 36 -27 41
-24 5 3 0 14 -11 23 -11 10 -19 20 -16 22 2 3 -12 9 -31 15 -19 6 -37 7 -40 3z"/>
<path d="M1050 1653 c0 -4 16 -23 35 -41 48 -43 106 -45 141 -5 13 15 21 30
17 33 -3 3 -8 -1 -10 -7 -5 -15 -123 -18 -123 -4 0 5 -8 11 -17 15 -10 3 -24
9 -30 12 -7 3 -13 2 -13 -3z"/>
<path d="M700 1610 c0 -5 5 -10 10 -10 6 0 10 5 10 10 0 6 -4 10 -10 10 -5 0
-10 -4 -10 -10z"/>
<path d="M1290 1579 c0 -18 2 -19 15 -9 8 7 15 16 15 21 0 5 -7 9 -15 9 -9 0
-15 -9 -15 -21z"/>
<path d="M871 1574 c0 -11 3 -14 6 -6 3 7 2 16 -1 19 -3 4 -6 -2 -5 -13z"/>
<path d="M1535 1547 c-16 -16 -29 -35 -27 -42 1 -7 -11 -23 -27 -35 -17 -11
-38 -34 -48 -50 -9 -17 -23 -30 -30 -30 -7 0 -13 -11 -13 -24 0 -14 -4 -28
-10 -31 -18 -11 -10 -27 11 -22 18 5 20 2 14 -16 -4 -12 -8 -33 -10 -47 -1
-14 -3 -28 -4 -32 0 -5 -13 -8 -27 -8 -14 0 -23 -4 -19 -10 3 -5 1 -10 -4 -10
-6 0 -11 -13 -11 -30 0 -38 24 -40 42 -3 15 30 38 42 38 20 0 -27 27 -27 39 0
10 22 9 25 -4 19 -9 -3 -13 -2 -10 4 3 6 21 10 40 10 34 0 47 11 52 43 2 12
-4 17 -20 18 l-22 0 23 9 c43 18 26 35 -34 33 -48 -1 -56 2 -64 20 -12 34 6
44 41 23 37 -22 59 -15 59 19 0 14 6 25 13 25 12 1 57 34 57 43 0 2 -13 10
-30 17 -37 15 -39 37 -5 46 14 3 25 10 25 14 0 5 7 16 16 24 13 14 13 16 1 16
-9 0 -17 4 -19 8 -1 5 -16 -5 -33 -21z m-105 -326 c0 -6 -4 -13 -10 -16 -5 -3
-10 1 -10 9 0 9 5 16 10 16 6 0 10 -4 10 -9z"/>
<path d="M2520 1571 c0 -5 -9 -11 -20 -14 -29 -7 -27 -53 2 -61 18 -4 20 -8
10 -18 -16 -16 -15 -48 1 -48 7 0 18 5 24 11 14 14 83 3 83 -12 0 -6 5 -7 10
-4 8 5 8 11 0 20 -8 9 -6 14 5 19 10 4 13 11 8 18 -4 7 -8 20 -8 28 0 8 -10
19 -22 25 -13 5 -23 14 -23 20 0 5 -4 3 -10 -5 -7 -12 -12 -11 -28 8 -20 23
-32 28 -32 13z"/>
<path d="M2427 1553 c-9 -9 -9 -43 1 -43 21 1 30 16 18 32 -7 10 -16 15 -19
11z"/>
<path d="M1430 1540 c-8 -5 -11 -12 -8 -16 4 -3 14 1 23 10 18 17 9 21 -15 6z"/>
<path d="M896 1452 c-10 -158 -18 -222 -27 -222 -5 0 -9 -13 -9 -30 0 -16 5
-30 10 -30 6 0 10 9 10 20 0 11 7 20 15 20 8 0 15 5 15 10 0 6 7 10 15 10 16
0 19 9 15 50 -2 20 0 22 13 11 13 -10 17 -9 26 6 9 16 13 16 32 4 22 -13 22
-13 15 44 -8 72 -23 100 -79 152 l-46 41 -5 -86z"/>
<path d="M2440 1500 c0 -5 5 -10 10 -10 6 0 10 5 10 10 0 6 -4 10 -10 10 -5 0
-10 -4 -10 -10z"/>
<path d="M2312 1482 c-18 -12 16 -40 59 -48 l34 -6 -32 21 c-18 11 -33 25 -33
31 0 12 -10 13 -28 2z"/>
<path d="M728 1473 c6 -2 18 -2 25 0 6 3 1 5 -13 5 -14 0 -19 -2 -12 -5z"/>
<path d="M1628 1453 c6 -2 18 -2 25 0 6 3 1 5 -13 5 -14 0 -19 -2 -12 -5z"/>
<path d="M1371 1424 c0 -11 3 -14 6 -6 3 7 2 16 -1 19 -3 4 -6 -2 -5 -13z"/>
<path d="M2500 1396 c0 -9 5 -16 10 -16 6 0 10 4 10 9 0 6 -4 13 -10 16 -5 3
-10 -1 -10 -9z"/>
<path d="M2250 1375 c-30 -11 -36 -18 -41 -51 -3 -22 -8 -52 -12 -69 -11 -49
12 -69 73 -63 38 4 50 2 50 -8 0 -8 9 -14 20 -14 11 0 20 5 20 10 0 6 7 10 15
10 9 0 16 10 16 23 5 85 4 89 -27 123 -18 19 -39 34 -48 34 -9 0 -16 5 -16 10
0 12 -4 11 -50 -5z"/>
<path d="M760 1340 c0 -5 5 -10 10 -10 6 0 10 5 10 10 0 6 -4 10 -10 10 -5 0
-10 -4 -10 -10z"/>
<path d="M780 1200 c0 -5 5 -10 10 -10 6 0 10 5 10 10 0 6 -4 10 -10 10 -5 0
-10 -4 -10 -10z"/>
<path d="M2230 1146 c0 -9 30 -14 35 -6 4 6 -3 10 -14 10 -12 0 -21 -2 -21 -4z"/>
<path d="M2380 1140 c0 -5 4 -10 9 -10 6 0 13 5 16 10 3 6 -1 10 -9 10 -9 0
-16 -4 -16 -10z"/>
<path d="M1230 1045 c0 -8 5 -15 10 -15 6 0 10 7 10 15 0 8 -4 15 -10 15 -5 0
-10 -7 -10 -15z"/>
<path d="M1200 850 c-11 -7 -7 -10 18 -10 17 0 32 5 32 10 0 13 -30 13 -50 0z"/>
<path d="M3810 1781 c0 -25 6 -27 13 -6 4 8 2 17 -3 20 -6 4 -10 -3 -10 -14z"/>
<path d="M3812 1715 c0 -16 2 -22 5 -12 2 9 2 23 0 30 -3 6 -5 -1 -5 -18z"/>
<path d="M4544 765 c-19 -14 -18 -14 4 -15 13 0 22 6 22 15 0 19 -1 19 -26 0z"/>
<path d="M4393 748 c-30 -14 -36 -36 -12 -43 25 -8 59 3 59 19 0 23 -23 35
-47 24z"/>
<path d="M4290 710 c0 -5 7 -10 15 -10 8 0 15 5 15 10 0 6 -7 10 -15 10 -8 0
-15 -4 -15 -10z"/>
<path d="M4369 661 c-12 -14 -12 -18 3 -33 14 -14 18 -15 29 -2 6 8 8 14 4 14
-4 0 -2 7 5 15 7 8 11 15 9 16 -30 6 -38 4 -50 -10z"/>
<path d="M4237 609 c7 -7 15 -10 18 -7 3 3 -2 9 -12 12 -14 6 -15 5 -6 -5z"/>
<path d="M2465 770 c3 -5 8 -10 11 -10 2 0 4 5 4 10 0 6 -5 10 -11 10 -5 0 -7
-4 -4 -10z"/>
<path d="M680 426 c0 -47 -3 -57 -15 -52 -24 9 -17 -10 10 -28 13 -9 26 -16
28 -16 7 0 -4 123 -13 138 -7 13 -9 1 -10 -42z"/>
<path d="M1493 345 c-13 -12 -23 -34 -23 -50 0 -27 1 -27 24 -11 24 15 26 15
48 -17 12 -17 35 -44 50 -59 22 -20 28 -35 28 -67 0 -40 -1 -41 -33 -41 -44 0
-49 -7 -32 -39 30 -57 43 -61 195 -61 82 0 141 4 145 10 3 6 24 10 45 10 21 0
42 5 45 10 3 6 22 10 41 10 40 0 81 19 106 48 16 20 21 51 19 125 -1 34 -3 37
-31 37 -21 0 -30 -5 -30 -16 0 -18 -25 -46 -34 -37 -3 4 -6 -1 -6 -10 0 -24
-8 -21 -38 11 -37 39 -64 52 -98 46 -43 -8 -66 -32 -52 -54 9 -14 9 -22 -1
-34 -20 -23 -40 -20 -53 10 -12 25 -6 36 27 47 16 6 -22 37 -45 37 -11 0 -23
-7 -26 -15 -8 -19 -54 -20 -54 -1 0 7 -14 19 -30 26 -37 15 -100 76 -100 96 0
23 -62 15 -87 -11z m262 -177 c-9 -31 -33 -48 -64 -47 -24 1 -23 2 7 10 17 5
32 15 32 22 0 12 19 37 28 37 2 0 0 -10 -3 -22z m155 -44 c0 -2 -9 -4 -21 -4
-11 0 -18 4 -14 10 5 8 35 3 35 -6z m-155 -14 c3 -5 -3 -10 -14 -10 -12 0 -21
5 -21 10 0 6 6 10 14 10 8 0 18 -4 21 -10z"/>
<path d="M691 278 c1 -22 3 -26 6 -13 3 11 10 26 15 33 8 9 6 12 -6 12 -12 0
-16 -9 -15 -32z"/>
<path d="M2963 113 c-18 -7 -16 -33 2 -33 8 0 15 9 15 20 0 11 -1 20 -2 19 -2
0 -9 -3 -15 -6z"/>
<path d="M3026 55 c-3 -9 0 -15 8 -15 8 0 16 -6 18 -12 4 -10 9 -9 20 3 14 14
14 17 -3 27 -25 16 -36 15 -43 -3z"/>
</g>
</svg>
